<svg xmlns="http://www.w3.org/2000/svg" xmlns:xlink="http://www.w3.org/1999/xlink" width="257" height="323" viewBox="0 0 257 323">
  <defs>
    <clipPath id="clip-path">
      <rect id="Rectangle_22808" data-name="Rectangle 22808" width="257" height="323" transform="translate(7224 -10403)" fill="none"/>
    </clipPath>
    <clipPath id="clip-path-2">
      <path id="Path_79235" data-name="Path 79235" d="M154.969,188.623c-10,0-16.967-4.491-16.967-8.537s-4.521-63.055,25.707-61.018c9.972.669,8.226,56.983,8.226,61.018S164.971,188.623,154.969,188.623Z" transform="translate(-137.763 -119.017)" fill="none"/>
    </clipPath>
  </defs>
  <g id="Grpahics-E-Learning" transform="translate(-7224 10403)" clip-path="url(#clip-path)">
    <g id="Grpahics-E_Learning" data-name="Grpahics-E Learning" transform="translate(6833.083 -10778.069)">
      <g id="OBJECTS" transform="translate(400.296 374.578)">
        <path id="Path_78954" data-name="Path 78954" d="M114.56,241.236c14.027.3,18.247,7.208,19.4,11.117a6.267,6.267,0,0,0,2.765-5.006c-.136-4.472-6.5-7.761-14.28-7.528a23.486,23.486,0,0,0-7.887,1.416Z" transform="translate(-109.971 -76.497)" fill="#ecfff1" opacity="0.23"/>
        <path id="Path_78955" data-name="Path 78955" d="M109.83,248.577c.116,3.958,5.82,6.994,12.679,6.791s12.369-3.58,12.252-7.538v-.34c-.378,3.715-5.665,6.791-12.223,6.965s-12.223-2.658-12.66-6.432A3.357,3.357,0,0,0,109.83,248.577Z" transform="translate(-109.83 -76.726)" fill="#fff" opacity="0.5"/>
        <path id="Path_78970" data-name="Path 78970" d="M131.35,310.6l-19.528-12.019a3.279,3.279,0,0,1,0-5.578l100.336-61.736a5.888,5.888,0,0,1,6.17,0L344.37,308.87a3.23,3.23,0,0,1,0,5.5L243.986,376.145a5.937,5.937,0,0,1-6.209,0l-21.061-12.98Z" transform="translate(-109.843 -76.215)" fill="#1796ce" opacity="0.3"/>
        <path id="Path_78971" data-name="Path 78971" d="M211.25,99.105l4.016-2.551h0a2.794,2.794,0,0,1,3.095-.1l125.587,77.325a7.761,7.761,0,0,1,3.677,6.587v109.28a3.007,3.007,0,0,1-1.358,2.522h0l-.233.155h0l-4.385,2.765a31.483,31.483,0,0,1-.485-3.783l.126-.048L216.6,214.487a5.4,5.4,0,0,1-2.561-4.6V99.726Z" transform="translate(-112.864 -72.195)" fill="#1991eb"/>
        <path id="Path_78972" data-name="Path 78972" d="M338.6,295.078,212.271,217.345a5.413,5.413,0,0,1-2.561-4.6V101.692a2.842,2.842,0,0,1,4.336-2.425L339.633,176.6a7.761,7.761,0,0,1,3.677,6.577v109.28a3.085,3.085,0,0,1-4.7,2.619Z" transform="translate(-112.818 -72.279)" fill="#d5ebff"/>
        <path id="Path_78973" data-name="Path 78973" d="M335.954,288.977,215,214.5a5.18,5.18,0,0,1-2.454-4.4V110.026a2.726,2.726,0,0,1,4.152-2.318l120.232,74a7.392,7.392,0,0,1,3.521,6.3v98.473a2.91,2.91,0,0,1-4.5,2.5Z" transform="translate(-112.903 -72.532)" fill="#00a6e0"/>
        <path id="Path_78974" data-name="Path 78974" d="M110.3,286.48h0v-5.82h7.15L203.66,227.7a5.908,5.908,0,0,1,6.179,0l118.214,72.756,9.361,1.339v6.015h0a3.192,3.192,0,0,1-1.523,2.959L244.025,367.2a5.937,5.937,0,0,1-6.208,0L111.842,289.594a3.24,3.24,0,0,1-1.542-3.114Z" transform="translate(-109.843 -76.108)" fill="#1991eb"/>
        <path id="Path_78975" data-name="Path 78975" d="M237.777,360.788,111.8,283.181a3.269,3.269,0,0,1,0-5.568L203.63,221.2a5.879,5.879,0,0,1,6.179,0l126.043,77.607a3.23,3.23,0,0,1,0,5.5l-91.867,56.43A5.918,5.918,0,0,1,237.777,360.788Z" transform="translate(-109.842 -75.914)" fill="#d5ebff"/>
        <path id="Path_78976" data-name="Path 78976" d="M263.165,333.912,157.4,268.809a2.91,2.91,0,0,1,0-4.957L210,230.976a5.268,5.268,0,0,1,5.5,0l105.836,65.19a2.91,2.91,0,0,1,0,4.9l-52.637,32.9A5.3,5.3,0,0,1,263.165,333.912Z" transform="translate(-111.212 -76.209)" fill="#b0d1ea"/>
        <path id="Path_78977" data-name="Path 78977" d="M201.384,335.841l-44.061-27.162a1.135,1.135,0,0,1,0-1.94l25.513-15.968a2.066,2.066,0,0,1,2.163,0l44.09,27.162a1.125,1.125,0,0,1,0,1.94L203.557,335.85A2.066,2.066,0,0,1,201.384,335.841Z" transform="translate(-111.235 -78.012)" fill="#b0d1ea"/>
        <path id="Path_78978" data-name="Path 78978" d="M316.483,294.627a.65.65,0,0,1,.65,0l5.5,3.376.611-.194v.776h0a.33.33,0,0,1-.155.281l-6.238,3.88a.65.65,0,0,1-.65,0l-5.947-3.657a.34.34,0,0,1-.165-.291h0v-.776Z" transform="translate(-115.821 -78.134)" fill="#396bb3"/>
        <path id="Path_78979" data-name="Path 78979" d="M307.393,289a.621.621,0,0,1,.66,0l5.491,3.376.621-.194v.776h0a.34.34,0,0,1-.165.281l-6.228,3.88a.669.669,0,0,1-.66,0l-5.947-3.657a.33.33,0,0,1-.155-.291h0V292.4Z" transform="translate(-115.549 -77.965)" fill="#396bb3"/>
        <path id="Path_78980" data-name="Path 78980" d="M298.313,283.427a.6.6,0,0,1,.65,0l5.5,3.376.621-.2v.776h0a.33.33,0,0,1-.155.291l-6.238,3.88a.6.6,0,0,1-.65,0l-5.947-3.648a.369.369,0,0,1-.165-.291h0v-.718Z" transform="translate(-115.278 -77.799)" fill="#396bb3"/>
        <path id="Path_78981" data-name="Path 78981" d="M289.233,277.827a.6.6,0,0,1,.65,0l5.491,3.376.621-.2v.776h0a.339.339,0,0,1-.165.291l-6.228,3.88a.6.6,0,0,1-.65,0l-5.956-3.638a.349.349,0,0,1-.165-.291h0v-.766Z" transform="translate(-115.006 -77.631)" fill="#396bb3"/>
        <path id="Path_78982" data-name="Path 78982" d="M280.143,272.227a.6.6,0,0,1,.65,0l5.5,3.376.621-.2v.776h0a.339.339,0,0,1-.165.291l-6.228,3.88a.621.621,0,0,1-.66,0l-5.947-3.647a.339.339,0,0,1-.155-.291h0v-.766Z" transform="translate(-114.734 -77.463)" fill="#396bb3"/>
        <path id="Path_78983" data-name="Path 78983" d="M271.063,266.627a.6.6,0,0,1,.65,0l5.5,3.376.611-.2v.776h0a.33.33,0,0,1-.155.291l-6.238,3.88a.6.6,0,0,1-.65,0l-5.947-3.657a.33.33,0,0,1-.165-.281h0v-.766Z" transform="translate(-114.462 -77.296)" fill="#396bb3"/>
        <path id="Path_78984" data-name="Path 78984" d="M261.983,261a.631.631,0,0,1,.65,0l5.491,3.376.621-.2v.776h0a.33.33,0,0,1-.165.281l-6.228,3.88a.621.621,0,0,1-.66,0l-5.947-3.657a.32.32,0,0,1-.155-.281h0V264.4Z" transform="translate(-114.191 -77.128)" fill="#ffb758"/>
        <path id="Path_78985" data-name="Path 78985" d="M261.692,268.366l-5.947-3.657a.349.349,0,0,1,0-.592l6.228-3.88a.6.6,0,0,1,.65,0l5.976,3.647a.34.34,0,0,1,0,.582l-6.228,3.88a.669.669,0,0,1-.679.019Z" transform="translate(-114.19 -77.105)" fill="#f7981c"/>
        <path id="Path_78986" data-name="Path 78986" d="M252.893,255.417a.65.65,0,0,1,.65,0l5.5,3.386.621-.2v.776h0a.349.349,0,0,1-.165.281l-6.238,3.88a.6.6,0,0,1-.65,0l-5.947-3.677a.359.359,0,0,1-.165-.281h0v-.689Z" transform="translate(-113.919 -76.961)" fill="#396bb3"/>
        <path id="Path_78987" data-name="Path 78987" d="M243.8,249.817a.65.65,0,0,1,.65,0l5.491,3.386.621-.2v.776h0a.32.32,0,0,1-.155.281l-6.238,3.88a.6.6,0,0,1-.65,0l-5.947-3.657a.34.34,0,0,1-.165-.281h0v-.766Z" transform="translate(-113.647 -76.793)" fill="#396bb3"/>
        <path id="Path_78988" data-name="Path 78988" d="M234.723,244.217a.65.65,0,0,1,.65,0l5.5,3.376.621-.194v.776h0a.339.339,0,0,1-.165.281l-6.228,3.88a.669.669,0,0,1-.66,0L228.5,248.68a.33.33,0,0,1-.155-.291h0v-.776Z" transform="translate(-113.375 -76.626)" fill="#396bb3"/>
        <path id="Path_78989" data-name="Path 78989" d="M225.643,238.617a.6.6,0,0,1,.65,0l5.5,3.376.611-.194v.776h0a.33.33,0,0,1-.155.281l-6.238,3.88a.65.65,0,0,1-.65,0l-5.947-3.657a.339.339,0,0,1-.165-.291h0v-.766Z" transform="translate(-113.104 -76.458)" fill="#396bb3"/>
        <path id="Path_78990" data-name="Path 78990" d="M216.563,233a.6.6,0,0,1,.65,0l5.491,3.376.621-.2v.776h0a.34.34,0,0,1-.165.291l-6.228,3.88a.621.621,0,0,1-.66,0l-5.937-3.648a.339.339,0,0,1-.165-.291h0v-.766Z" transform="translate(-112.832 -76.29)" fill="#396bb3"/>
        <path id="Path_78991" data-name="Path 78991" d="M306.353,301a.6.6,0,0,1,.65,0l5.5,3.376.621-.2v.776h0a.339.339,0,0,1-.165.291l-6.228,3.88a.621.621,0,0,1-.66,0l-5.947-3.648a.34.34,0,0,1-.155-.291h0v-.766Z" transform="translate(-115.519 -78.324)" fill="#396bb3"/>
        <path id="Path_78992" data-name="Path 78992" d="M297.273,295.427a.6.6,0,0,1,.65,0l5.5,3.376.611-.2v.776h0a.33.33,0,0,1-.155.291l-6.238,3.88a.6.6,0,0,1-.65,0l-5.947-3.686a.33.33,0,0,1-.165-.281h0v-.689Z" transform="translate(-115.247 -78.158)" fill="#396bb3"/>
        <path id="Path_78993" data-name="Path 78993" d="M288.194,289.817a.631.631,0,0,1,.65,0l5.491,3.376.621-.2v.776h0a.33.33,0,0,1-.165.281l-6.228,3.88a.621.621,0,0,1-.66,0l-5.908-3.628a.31.31,0,0,1-.165-.281h0v-.766Z" transform="translate(-114.976 -77.99)" fill="#396bb3"/>
        <path id="Path_78994" data-name="Path 78994" d="M279.1,284.217a.65.65,0,0,1,.65,0l5.5,3.386.621-.2v.776h0a.349.349,0,0,1-.165.281l-6.238,3.88a.6.6,0,0,1-.65,0l-5.947-3.657a.359.359,0,0,1-.165-.281h0v-.766Z" transform="translate(-114.703 -77.822)" fill="#396bb3"/>
        <path id="Path_78995" data-name="Path 78995" d="M270.023,278.617a.65.65,0,0,1,.65,0l5.5,3.386.611-.2v.776h0a.33.33,0,0,1-.155.281l-6.238,3.88a.6.6,0,0,1-.65,0l-5.947-3.657a.339.339,0,0,1-.165-.291h0v-.766Z" transform="translate(-114.431 -77.655)" fill="#396bb3"/>
        <path id="Path_78996" data-name="Path 78996" d="M260.933,273a.669.669,0,0,1,.66,0l5.491,3.376.621-.194v.776h0a.34.34,0,0,1-.165.281l-6.228,3.88a.67.67,0,0,1-.66,0l-5.947-3.657a.33.33,0,0,1-.155-.291h0v-.776Z" transform="translate(-114.16 -77.487)" fill="#396bb3"/>
        <path id="Path_78997" data-name="Path 78997" d="M251.853,267.417a.6.6,0,0,1,.65,0l5.5,3.376.621-.194v.776h0a.33.33,0,0,1-.155.281l-6.238,3.88a.65.65,0,0,1-.65,0l-5.956-3.677a.34.34,0,0,1-.165-.291h0v-.679Z" transform="translate(-113.888 -77.32)" fill="#396bb3"/>
        <path id="Path_78998" data-name="Path 78998" d="M242.8,261.817a.6.6,0,0,1,.65,0l5.491,3.376.621-.2v.776h0a.34.34,0,0,1-.165.291l-6.228,3.88a.621.621,0,0,1-.66,0l-5.937-3.648a.34.34,0,0,1-.165-.291h0v-.766Z" transform="translate(-113.617 -77.152)" fill="#396bb3"/>
        <path id="Path_78999" data-name="Path 78999" d="M233.683,256.217a.6.6,0,0,1,.65,0l5.5,3.376.621-.2v.776h0a.339.339,0,0,1-.165.291l-6.228,3.88a.621.621,0,0,1-.66,0l-5.947-3.647a.378.378,0,0,1-.165-.291h0v-.766Z" transform="translate(-113.344 -76.985)" fill="#396bb3"/>
        <path id="Path_79000" data-name="Path 79000" d="M224.6,250.617a.6.6,0,0,1,.65,0l5.5,3.376.611-.2v.776h0a.33.33,0,0,1-.155.291l-6.238,3.88a.6.6,0,0,1-.65,0l-5.947-3.648a.349.349,0,0,1-.165-.291h0v-.766Z" transform="translate(-113.072 -76.817)" fill="#396bb3"/>
        <path id="Path_79001" data-name="Path 79001" d="M215.523,245a.6.6,0,0,1,.65,0l5.491,3.376.621-.2v.776h0a.34.34,0,0,1-.165.291l-6.228,3.88a.621.621,0,0,1-.66,0l-5.947-3.657a.32.32,0,0,1-.155-.281h0v-.766Z" transform="translate(-112.801 -76.649)" fill="#396bb3"/>
        <path id="Path_79002" data-name="Path 79002" d="M206.433,239.407a.631.631,0,0,1,.65,0l5.529,3.386.621-.2v.776h0a.32.32,0,0,1-.155.281l-6.238,3.88a.6.6,0,0,1-.65,0L200.2,243.86a.349.349,0,0,1-.165-.281h0v-.689Z" transform="translate(-112.529 -76.482)" fill="#396bb3"/>
        <path id="Path_79003" data-name="Path 79003" d="M296.233,307.417a.65.65,0,0,1,.65,0l5.5,3.386.611-.2v.776h0a.32.32,0,0,1-.155.281l-6.238,3.88a.6.6,0,0,1-.65,0l-5.956-3.677a.34.34,0,0,1-.165-.281h0v-.689Z" transform="translate(-115.215 -78.516)" fill="#396bb3"/>
        <path id="Path_79004" data-name="Path 79004" d="M287.143,301.817a.67.67,0,0,1,.66,0l5.491,3.376.621-.194v.776h0a.34.34,0,0,1-.165.281l-6.228,3.88a.669.669,0,0,1-.66,0l-5.947-3.657a.33.33,0,0,1-.155-.291h0v-.776Z" transform="translate(-114.944 -78.349)" fill="#396bb3"/>
        <path id="Path_79005" data-name="Path 79005" d="M278.063,296.217a.6.6,0,0,1,.65,0l5.5,3.376.621-.194v.776h0a.33.33,0,0,1-.155.281l-6.238,3.88a.65.65,0,0,1-.65,0l-5.947-3.657a.339.339,0,0,1-.165-.291h0v-.766Z" transform="translate(-114.672 -78.181)" fill="#396bb3"/>
        <path id="Path_79006" data-name="Path 79006" d="M268.983,290.617a.6.6,0,0,1,.65,0l5.491,3.376.621-.2v.776h0a.34.34,0,0,1-.165.291l-6.228,3.88a.6.6,0,0,1-.65,0l-5.947-3.648a.339.339,0,0,1-.165-.291h0v-.766Z" transform="translate(-114.4 -78.014)" fill="#396bb3"/>
        <path id="Path_79007" data-name="Path 79007" d="M259.893,285a.6.6,0,0,1,.65,0l5.5,3.376.621-.2v.776h0a.339.339,0,0,1-.165.291l-6.228,3.88a.621.621,0,0,1-.66,0l-5.947-3.647a.34.34,0,0,1-.155-.291h0v-.766Z" transform="translate(-114.129 -77.846)" fill="#396bb3"/>
        <path id="Path_79008" data-name="Path 79008" d="M250.8,279.417a.6.6,0,0,1,.65,0l5.5,3.376.611-.2v.776h0a.33.33,0,0,1-.155.291l-6.238,3.88a.6.6,0,0,1-.65,0l-5.937-3.677a.35.35,0,0,1-.165-.291h0v-.679Z" transform="translate(-113.857 -77.679)" fill="#396bb3"/>
        <path id="Path_79009" data-name="Path 79009" d="M241.733,273.817a.6.6,0,0,1,.65,0l5.491,3.376.621-.2v.776h0a.339.339,0,0,1-.165.291l-6.228,3.88a.621.621,0,0,1-.66,0l-5.947-3.657a.32.32,0,0,1-.155-.281h0v-.766Z" transform="translate(-113.585 -77.511)" fill="#396bb3"/>
        <path id="Path_79010" data-name="Path 79010" d="M232.643,268.207a.63.63,0,0,1,.65,0l5.5,3.376.621-.2v.776h0a.349.349,0,0,1-.165.281l-6.238,3.88a.6.6,0,0,1-.65,0l-5.947-3.657a.349.349,0,0,1-.165-.281h0v-.766Z" transform="translate(-113.313 -77.344)" fill="#396bb3"/>
        <path id="Path_79011" data-name="Path 79011" d="M223.563,262.607a.65.65,0,0,1,.65,0l5.491,3.386.621-.2v.776h0a.32.32,0,0,1-.155.281l-6.238,3.88a.6.6,0,0,1-.65,0l-5.947-3.657a.34.34,0,0,1-.165-.281h0v-.766Z" transform="translate(-113.041 -77.176)" fill="#396bb3"/>
        <path id="Path_79012" data-name="Path 79012" d="M214.473,257a.65.65,0,0,1,.65,0l5.491,3.4.621-.2v.776h0a.33.33,0,0,1-.165.281l-6.228,3.88a.621.621,0,0,1-.66,0l-5.947-3.657a.33.33,0,0,1-.155-.281h0v-.766Z" transform="translate(-112.769 -77.008)" fill="#396bb3"/>
        <path id="Path_79013" data-name="Path 79013" d="M205.393,251.407a.65.65,0,0,1,.65,0l5.5,3.376.611-.194v.776h0a.33.33,0,0,1-.155.281l-6.238,3.88a.65.65,0,0,1-.65,0l-5.947-3.667a.34.34,0,0,1-.165-.291h0v-.776Z" transform="translate(-112.498 -76.841)" fill="#396bb3"/>
        <path id="Path_79014" data-name="Path 79014" d="M196.313,245.807a.6.6,0,0,1,.65,0l5.491,3.376.621-.194v.776h0a.339.339,0,0,1-.165.281l-6.228,3.88a.669.669,0,0,1-.66,0l-5.937-3.657a.339.339,0,0,1-.165-.291h0v-.766Z" transform="translate(-112.226 -76.673)" fill="#396bb3"/>
        <path id="Path_79015" data-name="Path 79015" d="M286.1,313.817a.6.6,0,0,1,.65,0l5.5,3.376.621-.2v.776h0a.339.339,0,0,1-.165.291l-6.228,3.88a.621.621,0,0,1-.66,0l-5.947-3.647a.339.339,0,0,1-.155-.291h0v-.766Z" transform="translate(-114.913 -78.708)" fill="#396bb3"/>
        <path id="Path_79016" data-name="Path 79016" d="M277.023,308.217a.6.6,0,0,1,.65,0l5.5,3.376.611-.2v.776h0a.33.33,0,0,1-.155.291l-6.238,3.88a.6.6,0,0,1-.65,0l-5.947-3.647a.349.349,0,0,1-.165-.291h0v-.766Z" transform="translate(-114.641 -78.54)" fill="#396bb3"/>
        <path id="Path_79017" data-name="Path 79017" d="M267.943,302.617a.6.6,0,0,1,.65,0l5.491,3.376.621-.2v.776h0a.339.339,0,0,1-.165.291l-6.228,3.88a.621.621,0,0,1-.66,0l-5.937-3.657a.31.31,0,0,1-.165-.281h0v-.766Z" transform="translate(-114.369 -78.373)" fill="#396bb3"/>
        <path id="Path_79018" data-name="Path 79018" d="M258.853,297a.631.631,0,0,1,.65,0l5.5,3.376.621-.2v.776h0a.349.349,0,0,1-.165.281l-6.238,3.88a.6.6,0,0,1-.65,0l-5.947-3.657a.349.349,0,0,1-.165-.281h0V300.4Z" transform="translate(-114.097 -78.205)" fill="#396bb3"/>
        <path id="Path_79019" data-name="Path 79019" d="M249.8,291.407a.65.65,0,0,1,.65,0l5.491,3.386.621-.2v.776h0a.32.32,0,0,1-.155.281l-6.238,3.88a.6.6,0,0,1-.65,0l-5.976-3.667a.34.34,0,0,1-.165-.281h0v-.689Z" transform="translate(-113.825 -78.038)" fill="#396bb3"/>
        <path id="Path_79020" data-name="Path 79020" d="M240.683,285.807a.669.669,0,0,1,.66,0l5.491,3.386.621-.2v.776h0a.33.33,0,0,1-.165.281l-6.228,3.88a.621.621,0,0,1-.66,0l-5.947-3.657a.33.33,0,0,1-.155-.281h0v-.766Z" transform="translate(-113.554 -77.87)" fill="#396bb3"/>
        <path id="Path_79021" data-name="Path 79021" d="M231.6,280.207a.65.65,0,0,1,.65,0l5.5,3.376.621-.194v.776h0a.33.33,0,0,1-.155.281l-6.238,3.88a.65.65,0,0,1-.65,0l-5.947-3.657a.34.34,0,0,1-.165-.291h0V283.6Z" transform="translate(-113.282 -77.702)" fill="#396bb3"/>
        <path id="Path_79022" data-name="Path 79022" d="M222.523,274.607a.6.6,0,0,1,.65,0l5.491,3.376.621-.194v.776h0a.34.34,0,0,1-.165.281l-6.228,3.88a.67.67,0,0,1-.66,0l-5.937-3.657a.34.34,0,0,1-.165-.291h0v-.766Z" transform="translate(-113.01 -77.535)" fill="#396bb3"/>
        <path id="Path_79023" data-name="Path 79023" d="M213.433,269a.6.6,0,0,1,.65,0l5.5,3.376.621-.2v.776h0a.369.369,0,0,1-.165.291l-6.228,3.88a.621.621,0,0,1-.66,0l-5.947-3.648a.369.369,0,0,1-.165-.291h0v-.766Z" transform="translate(-112.738 -77.367)" fill="#396bb3"/>
        <path id="Path_79024" data-name="Path 79024" d="M204.353,263.407a.6.6,0,0,1,.65,0l5.5,3.376.611-.2v.776h0a.33.33,0,0,1-.155.291l-6.238,3.88a.6.6,0,0,1-.65,0l-5.947-3.667a.349.349,0,0,1-.165-.291h0V266.8Z" transform="translate(-112.467 -77.2)" fill="#396bb3"/>
        <path id="Path_79025" data-name="Path 79025" d="M195.272,257.807a.6.6,0,0,1,.65,0l5.491,3.376.621-.2v.776h0a.34.34,0,0,1-.165.291l-6.228,3.88a.621.621,0,0,1-.66,0L189,262.289a.339.339,0,0,1-.155-.291h0v-.766Z" transform="translate(-112.194 -77.032)" fill="#396bb3"/>
        <path id="Path_79026" data-name="Path 79026" d="M186.184,252.207a.6.6,0,0,1,.65,0l5.5,3.376.621-.2v.776h0a.33.33,0,0,1-.155.291l-6.238,3.88a.6.6,0,0,1-.65,0l-5.917-3.647a.349.349,0,0,1-.165-.281h0v-.766Z" transform="translate(-111.924 -76.865)" fill="#396bb3"/>
        <path id="Path_79027" data-name="Path 79027" d="M275.983,320.207a.65.65,0,0,1,.65,0l5.5,3.386.611-.2v.776h0a.32.32,0,0,1-.155.281l-6.238,3.88a.6.6,0,0,1-.65,0l-5.947-3.657a.34.34,0,0,1-.165-.281h0v-.766Z" transform="translate(-114.61 -78.899)" fill="#396bb3"/>
        <path id="Path_79028" data-name="Path 79028" d="M266.893,314.607a.67.67,0,0,1,.66,0l5.491,3.386.621-.2v.776h0a.33.33,0,0,1-.165.281l-6.228,3.88a.621.621,0,0,1-.66,0l-5.947-3.657a.33.33,0,0,1-.155-.281h0v-.766Z" transform="translate(-114.338 -78.732)" fill="#396bb3"/>
        <path id="Path_79029" data-name="Path 79029" d="M257.8,309a.65.65,0,0,1,.65,0l5.5,3.376.621-.194v.776h0a.33.33,0,0,1-.155.281l-6.238,3.88a.65.65,0,0,1-.65,0l-5.947-3.657a.339.339,0,0,1-.165-.291h0v-.776Z" transform="translate(-114.066 -78.564)" fill="#396bb3"/>
        <path id="Path_79030" data-name="Path 79030" d="M248.733,303.407a.6.6,0,0,1,.65,0l5.491,3.376.621-.194v.776h0a.34.34,0,0,1-.165.281l-6.228,3.88a.65.65,0,0,1-.65,0L242.5,307.86a.34.34,0,0,1-.165-.291h0V306.8Z" transform="translate(-113.794 -78.396)" fill="#396bb3"/>
        <path id="Path_79031" data-name="Path 79031" d="M239.643,297.807a.6.6,0,0,1,.65,0l5.5,3.376.621-.2v.776h0a.34.34,0,0,1-.165.291l-6.228,3.88a.621.621,0,0,1-.66,0l-5.947-3.647a.33.33,0,0,1-.155-.291h0v-.766Z" transform="translate(-113.523 -78.229)" fill="#396bb3"/>
        <path id="Path_79032" data-name="Path 79032" d="M230.563,292.207a.6.6,0,0,1,.65,0l5.5,3.376.611-.2v.776h0a.33.33,0,0,1-.155.291l-6.238,3.88a.6.6,0,0,1-.65,0l-5.947-3.648a.349.349,0,0,1-.165-.291h0v-.766Z" transform="translate(-113.251 -78.061)" fill="#396bb3"/>
        <path id="Path_79033" data-name="Path 79033" d="M221.483,286.607a.6.6,0,0,1,.65,0l5.491,3.376.621-.2v.776h0a.34.34,0,0,1-.165.291l-6.228,3.88a.621.621,0,0,1-.66,0l-5.947-3.647a.34.34,0,0,1-.155-.291h0v-.766Z" transform="translate(-112.979 -77.894)" fill="#396bb3"/>
        <path id="Path_79034" data-name="Path 79034" d="M212.393,281a.6.6,0,0,1,.65,0l5.5,3.376.621-.2v.776h0a.369.369,0,0,1-.165.291l-6.238,3.88a.6.6,0,0,1-.65,0l-5.947-3.657a.349.349,0,0,1-.165-.281h0v-.766Z" transform="translate(-112.707 -77.726)" fill="#396bb3"/>
        <path id="Path_79035" data-name="Path 79035" d="M203.313,275.4a.63.63,0,0,1,.65,0l5.491,3.376.621-.2v.776h0a.32.32,0,0,1-.155.281l-6.238,3.88a.6.6,0,0,1-.65,0l-5.947-3.648a.33.33,0,0,1-.165-.281h0v-.766Z" transform="translate(-112.436 -77.558)" fill="#396bb3"/>
        <path id="Path_79036" data-name="Path 79036" d="M194.223,269.8a.65.65,0,0,1,.65,0l5.5,3.386.621-.2v.776h0a.33.33,0,0,1-.165.281l-6.228,3.88a.621.621,0,0,1-.66,0L188,274.279a.33.33,0,0,1-.155-.281h0v-.766Z" transform="translate(-112.164 -77.391)" fill="#396bb3"/>
        <path id="Path_79037" data-name="Path 79037" d="M185.143,264.2a.65.65,0,0,1,.65,0l5.5,3.386.611-.2v.776h0a.32.32,0,0,1-.155.281l-6.238,3.88a.6.6,0,0,1-.65,0l-5.947-3.657a.34.34,0,0,1-.165-.291h0V267.6Z" transform="translate(-111.892 -77.224)" fill="#396bb3"/>
        <path id="Path_79038" data-name="Path 79038" d="M176.063,258.6a.65.65,0,0,1,.65,0l5.491,3.376.621-.194v.776h0a.34.34,0,0,1-.165.281l-6.228,3.88a.669.669,0,0,1-.66,0l-5.937-3.657a.34.34,0,0,1-.165-.291h0v-.776Z" transform="translate(-111.62 -77.056)" fill="#396bb3"/>
        <path id="Path_79039" data-name="Path 79039" d="M265.853,326.607a.6.6,0,0,1,.65,0l5.5,3.376.621-.2v.776h0a.34.34,0,0,1-.165.291l-6.228,3.88a.621.621,0,0,1-.66,0l-5.947-3.648a.33.33,0,0,1-.155-.291h0v-.766Z" transform="translate(-114.307 -79.09)" fill="#396bb3"/>
        <path id="Path_79040" data-name="Path 79040" d="M256.8,321a.6.6,0,0,1,.65,0l5.5,3.376.611-.2v.776h0a.33.33,0,0,1-.155.291l-6.238,3.88a.6.6,0,0,1-.65,0l-5.947-3.648a.349.349,0,0,1-.165-.291h0v-.766Z" transform="translate(-114.036 -78.923)" fill="#396bb3"/>
        <path id="Path_79041" data-name="Path 79041" d="M247.693,315.407a.6.6,0,0,1,.65,0l5.491,3.376.621-.2v.776h0a.339.339,0,0,1-.165.291l-6.228,3.88a.621.621,0,0,1-.66,0l-5.937-3.667a.33.33,0,0,1-.165-.291h0V318.8Z" transform="translate(-113.763 -78.755)" fill="#396bb3"/>
        <path id="Path_79042" data-name="Path 79042" d="M202.273,287.4a.65.65,0,0,1,.65,0l5.491,3.376.621-.194v.776h0a.34.34,0,0,1-.165.281l-6.228,3.88a.67.67,0,0,1-.66,0l-5.937-3.657a.34.34,0,0,1-.165-.291h0v-.776Z" transform="translate(-112.404 -77.918)" fill="#396bb3"/>
        <path id="Path_79043" data-name="Path 79043" d="M193.184,281.8a.6.6,0,0,1,.65,0l5.5,3.376.621-.194v.776h0a.359.359,0,0,1-.165.281l-6.228,3.88a.669.669,0,0,1-.66,0l-5.908-3.638a.369.369,0,0,1-.165-.291h0v-.766Z" transform="translate(-112.134 -77.75)" fill="#396bb3"/>
        <path id="Path_79044" data-name="Path 79044" d="M184.1,276.2a.6.6,0,0,1,.65,0l5.5,3.376.611-.2v.776h0a.33.33,0,0,1-.155.291l-6.238,3.88a.6.6,0,0,1-.65,0l-5.947-3.647a.34.34,0,0,1-.165-.291h0v-.766Z" transform="translate(-111.861 -77.582)" fill="#396bb3"/>
        <path id="Path_79045" data-name="Path 79045" d="M175.127,270.6a.621.621,0,0,1,.66,0l5.491,3.376.621-.2v.776h0a.34.34,0,0,1-.165.291l-2.532,1.581a.6.6,0,0,1-.65,0L172.6,272.76a.34.34,0,0,1-.165-.281h0v-.766Z" transform="translate(-111.703 -77.415)" fill="#396bb3"/>
        <path id="Path_79046" data-name="Path 79046" d="M171.317,273a.6.6,0,0,1,.65,0l5.491,3.376.621-.2v.776h0a.349.349,0,0,1-.165.291l-2.532,1.581a.65.65,0,0,1-.65,0l-5.947-3.657a.34.34,0,0,1-.165-.291h0v-.776Z" transform="translate(-111.589 -77.487)" fill="#396bb3"/>
        <path id="Path_79047" data-name="Path 79047" d="M165.933,265a.6.6,0,0,1,.65,0l5.5,3.376.621-.2v.776h0a.33.33,0,0,1-.155.291l-6.238,3.88a.6.6,0,0,1-.65,0l-5.947-3.648a.378.378,0,0,1-.165-.291h0v-.766Z" transform="translate(-111.317 -77.247)" fill="#396bb3"/>
        <path id="Path_79048" data-name="Path 79048" d="M211.352,293a.65.65,0,0,1,.65,0l5.5,3.386.621-.2v.776h0a.32.32,0,0,1-.155.281l-3.027,1.892,18.878,12.3,3.968-2.124a.6.6,0,0,1,.65,0l5.5,3.376.621-.2v.776h0a.369.369,0,0,1-.165.291l-6.238,3.88a.6.6,0,0,1-.65,0l-5.947-3.657h0L208,299.216h0l-2.91-1.766a.34.34,0,0,1-.165-.281h0V296.4Z" transform="translate(-112.675 -78.085)" fill="#396bb3"/>
        <path id="Path_79049" data-name="Path 79049" d="M316.2,301.967l-5.947-3.648a.349.349,0,0,1,0-.592l6.228-3.88a.6.6,0,0,1,.65,0l5.956,3.657a.349.349,0,0,1,0,.582l-6.238,3.88a.6.6,0,0,1-.65,0Z" transform="translate(-115.821 -78.11)" fill="#fff"/>
        <path id="Path_79050" data-name="Path 79050" d="M307.112,296.367l-5.947-3.657a.349.349,0,0,1,0-.582l6.228-3.88a.621.621,0,0,1,.66,0L314,291.885a.34.34,0,0,1,0,.582l-6.228,3.88a.621.621,0,0,1-.66.019Z" transform="translate(-115.55 -77.943)" fill="#fff"/>
        <path id="Path_79051" data-name="Path 79051" d="M298.031,290.747l-5.947-3.657a.339.339,0,0,1,0-.582l6.228-3.88a.631.631,0,0,1,.65,0l5.956,3.657a.339.339,0,0,1,0,.572l-6.238,3.88a.6.6,0,0,1-.65.01Z" transform="translate(-115.278 -77.775)" fill="#fff"/>
        <path id="Path_79052" data-name="Path 79052" d="M288.951,285.167l-5.956-3.657a.339.339,0,0,1,0-.582l6.228-3.88a.65.65,0,0,1,.65,0l5.947,3.667a.33.33,0,0,1,0,.572l-6.228,3.88a.6.6,0,0,1-.64,0Z" transform="translate(-115.006 -77.608)" fill="#fff"/>
        <path id="Path_79053" data-name="Path 79053" d="M279.862,279.567l-5.947-3.657a.349.349,0,0,1,0-.582l6.228-3.88a.65.65,0,0,1,.65,0l5.956,3.657a.349.349,0,0,1,0,.582l-6.228,3.88a.621.621,0,0,1-.66,0Z" transform="translate(-114.734 -77.441)" fill="#fff"/>
        <path id="Path_79054" data-name="Path 79054" d="M270.811,273.966l-5.947-3.657a.349.349,0,0,1,0-.592l6.228-3.88a.63.63,0,0,1,.65,0l5.956,3.657a.349.349,0,0,1,0,.582l-6.238,3.88a.65.65,0,0,1-.65.01Z" transform="translate(-114.463 -77.272)" fill="#fff"/>
        <path id="Path_79055" data-name="Path 79055" d="M252.612,262.747l-5.947-3.648a.349.349,0,0,1,0-.592l6.228-3.88a.6.6,0,0,1,.65,0l5.956,3.657a.349.349,0,0,1,0,.582l-6.238,3.88A.6.6,0,0,1,252.612,262.747Z" transform="translate(-113.919 -76.937)" fill="#fff"/>
        <path id="Path_79056" data-name="Path 79056" d="M243.532,257.157l-5.947-3.648a.349.349,0,0,1,0-.592l6.228-3.88a.6.6,0,0,1,.65,0l5.956,3.657a.349.349,0,0,1,0,.582l-6.238,3.88a.6.6,0,0,1-.65,0Z" transform="translate(-113.647 -76.77)" fill="#fff"/>
        <path id="Path_79057" data-name="Path 79057" d="M234.442,251.557l-5.947-3.648a.349.349,0,0,1,0-.592l6.228-3.88a.6.6,0,0,1,.65,0l5.956,3.657a.349.349,0,0,1,0,.582l-6.228,3.88a.621.621,0,0,1-.66,0Z" transform="translate(-113.375 -76.602)" fill="#fff"/>
        <path id="Path_79058" data-name="Path 79058" d="M225.362,245.957l-5.947-3.657a.34.34,0,0,1,0-.582l6.228-3.88a.6.6,0,0,1,.65,0l5.956,3.657a.349.349,0,0,1,0,.582l-6.238,3.88a.6.6,0,0,1-.65,0Z" transform="translate(-113.104 -76.435)" fill="#fff"/>
        <path id="Path_79059" data-name="Path 79059" d="M216.272,240.357l-5.937-3.657a.34.34,0,0,1,0-.582l6.228-3.88a.6.6,0,0,1,.65,0l5.947,3.657a.33.33,0,0,1,0,.572l-6.228,3.88a.621.621,0,0,1-.66.01Z" transform="translate(-112.832 -76.267)" fill="#fff"/>
        <path id="Path_79060" data-name="Path 79060" d="M306.072,308.367l-5.947-3.657a.349.349,0,0,1,0-.582l6.228-3.88a.65.65,0,0,1,.65,0l5.956,3.657a.349.349,0,0,1,0,.582l-6.228,3.88a.621.621,0,0,1-.66,0Z" transform="translate(-115.518 -78.302)" fill="#fff"/>
        <path id="Path_79061" data-name="Path 79061" d="M296.992,302.746l-5.947-3.657a.349.349,0,0,1,0-.592l6.228-3.88a.65.65,0,0,1,.65,0l5.956,3.657a.349.349,0,0,1,0,.582l-6.238,3.88a.65.65,0,0,1-.65.01Z" transform="translate(-115.247 -78.134)" fill="#fff"/>
        <path id="Path_79062" data-name="Path 79062" d="M287.9,297.166l-5.908-3.657a.349.349,0,0,1,0-.592l6.228-3.88a.6.6,0,0,1,.65,0l5.947,3.657a.339.339,0,0,1,0,.582l-6.228,3.88A.669.669,0,0,1,287.9,297.166Z" transform="translate(-114.976 -77.966)" fill="#fff"/>
        <path id="Path_79063" data-name="Path 79063" d="M278.811,291.557l-5.947-3.648a.349.349,0,0,1,0-.592l6.228-3.88a.6.6,0,0,1,.65,0l5.956,3.657a.349.349,0,0,1,0,.582l-6.238,3.88A.6.6,0,0,1,278.811,291.557Z" transform="translate(-114.703 -77.799)" fill="#fff"/>
        <path id="Path_79064" data-name="Path 79064" d="M269.742,285.957l-5.947-3.648a.349.349,0,0,1,0-.592l6.228-3.88a.6.6,0,0,1,.65,0l5.927,3.648a.349.349,0,0,1,0,.582l-6.238,3.88a.6.6,0,0,1-.621.01Z" transform="translate(-114.431 -77.632)" fill="#fff"/>
        <path id="Path_79065" data-name="Path 79065" d="M260.651,280.357l-5.947-3.648a.349.349,0,0,1,0-.592l6.228-3.88a.621.621,0,0,1,.66,0l5.947,3.657a.349.349,0,0,1,0,.582l-6.228,3.88a.621.621,0,0,1-.66,0Z" transform="translate(-114.159 -77.464)" fill="#fff"/>
        <path id="Path_79066" data-name="Path 79066" d="M251.571,274.747l-5.947-3.657a.34.34,0,0,1,0-.582l6.228-3.88a.6.6,0,0,1,.65,0l5.956,3.657a.349.349,0,0,1,0,.582l-6.238,3.88a.6.6,0,0,1-.65,0Z" transform="translate(-113.888 -77.296)" fill="#fff"/>
        <path id="Path_79067" data-name="Path 79067" d="M242.482,269.157l-5.937-3.657a.339.339,0,0,1,0-.582l6.228-3.88a.63.63,0,0,1,.65,0l5.947,3.657a.33.33,0,0,1,0,.572l-6.228,3.88a.621.621,0,0,1-.66.01Z" transform="translate(-113.616 -77.129)" fill="#fff"/>
        <path id="Path_79068" data-name="Path 79068" d="M233.4,263.556l-5.947-3.7a.349.349,0,0,1,0-.582l6.228-3.88a.65.65,0,0,1,.65,0l5.956,3.667a.34.34,0,0,1,0,.572l-6.228,3.88A.621.621,0,0,1,233.4,263.556Z" transform="translate(-113.344 -76.96)" fill="#fff"/>
        <path id="Path_79069" data-name="Path 79069" d="M224.321,257.957l-5.947-3.657a.339.339,0,0,1,0-.582l6.228-3.88a.65.65,0,0,1,.65,0l5.956,3.657a.349.349,0,0,1,0,.582l-6.238,3.88A.6.6,0,0,1,224.321,257.957Z" transform="translate(-113.072 -76.794)" fill="#fff"/>
        <path id="Path_79070" data-name="Path 79070" d="M215.232,252.357l-5.947-3.657a.349.349,0,0,1,0-.592l6.238-3.88a.65.65,0,0,1,.65,0l5.947,3.657a.34.34,0,0,1,0,.582l-6.228,3.88a.669.669,0,0,1-.66.01Z" transform="translate(-112.801 -76.626)" fill="#fff"/>
        <path id="Path_79071" data-name="Path 79071" d="M206.152,246.746l-5.947-3.657a.349.349,0,0,1,0-.592l6.228-3.88a.6.6,0,0,1,.65,0l5.956,3.657a.349.349,0,0,1,0,.582l-6.247,3.89A.65.65,0,0,1,206.152,246.746Z" transform="translate(-112.529 -76.458)" fill="#fff"/>
        <path id="Path_79072" data-name="Path 79072" d="M295.951,314.747,290,311.109a.349.349,0,0,1,0-.592l6.228-3.88a.6.6,0,0,1,.65,0l5.956,3.657a.349.349,0,0,1,0,.582l-6.238,3.88A.6.6,0,0,1,295.951,314.747Z" transform="translate(-115.215 -78.493)" fill="#fff"/>
        <path id="Path_79073" data-name="Path 79073" d="M286.862,309.157l-5.947-3.648a.349.349,0,0,1,0-.592l6.228-3.88a.621.621,0,0,1,.66,0l5.947,3.657a.34.34,0,0,1,0,.582l-6.228,3.88a.621.621,0,0,1-.66,0Z" transform="translate(-114.944 -78.326)" fill="#fff"/>
        <path id="Path_79074" data-name="Path 79074" d="M277.811,303.555l-5.976-3.7a.34.34,0,0,1,0-.582l6.228-3.88a.6.6,0,0,1,.65,0l5.956,3.657a.349.349,0,0,1,0,.582l-6.238,3.88a.6.6,0,0,1-.621.039Z" transform="translate(-114.672 -78.157)" fill="#fff"/>
        <path id="Path_79075" data-name="Path 79075" d="M268.7,297.957l-5.947-3.657a.339.339,0,0,1,0-.582l6.228-3.88a.63.63,0,0,1,.65,0l5.966,3.647a.33.33,0,0,1,0,.572l-6.228,3.88A.6.6,0,0,1,268.7,297.957Z" transform="translate(-114.4 -77.991)" fill="#fff"/>
        <path id="Path_79076" data-name="Path 79076" d="M259.612,292.357l-5.947-3.657a.349.349,0,0,1,0-.582l6.228-3.88a.65.65,0,0,1,.65,0l5.956,3.648a.34.34,0,0,1,0,.572l-6.228,3.88a.621.621,0,0,1-.66.019Z" transform="translate(-114.128 -77.823)" fill="#fff"/>
        <path id="Path_79077" data-name="Path 79077" d="M250.532,286.747l-5.947-3.657a.34.34,0,0,1,0-.582l6.228-3.88a.65.65,0,0,1,.65,0l5.956,3.667a.34.34,0,0,1,0,.572l-6.238,3.88A.6.6,0,0,1,250.532,286.747Z" transform="translate(-113.857 -77.655)" fill="#fff"/>
        <path id="Path_79078" data-name="Path 79078" d="M241.442,281.157l-5.947-3.657a.349.349,0,0,1,0-.592l6.228-3.88a.65.65,0,0,1,.65,0l5.947,3.657a.339.339,0,0,1,0,.582l-6.228,3.88A.669.669,0,0,1,241.442,281.157Z" transform="translate(-113.585 -77.488)" fill="#fff"/>
        <path id="Path_79079" data-name="Path 79079" d="M232.362,275.555l-5.947-3.7a.349.349,0,0,1,0-.592l6.228-3.88a.6.6,0,0,1,.65,0l5.956,3.657a.349.349,0,0,1,0,.582l-6.238,3.88A.65.65,0,0,1,232.362,275.555Z" transform="translate(-113.313 -77.319)" fill="#fff"/>
        <path id="Path_79080" data-name="Path 79080" d="M223.282,269.947l-5.947-3.648a.349.349,0,0,1,0-.592l6.228-3.88a.6.6,0,0,1,.65,0l5.956,3.657a.349.349,0,0,1,0,.582l-6.238,3.88A.6.6,0,0,1,223.282,269.947Z" transform="translate(-113.041 -77.152)" fill="#fff"/>
        <path id="Path_79081" data-name="Path 79081" d="M214.192,264.347l-5.947-3.647a.349.349,0,0,1,0-.592l6.228-3.88a.6.6,0,0,1,.65,0l5.956,3.657a.349.349,0,0,1,0,.582l-6.228,3.88A.621.621,0,0,1,214.192,264.347Z" transform="translate(-112.769 -76.985)" fill="#fff"/>
        <path id="Path_79082" data-name="Path 79082" d="M205.112,258.747l-5.947-3.648a.349.349,0,0,1,0-.592l6.228-3.88a.6.6,0,0,1,.65,0L212,254.284a.349.349,0,0,1,0,.582l-6.209,3.88A.6.6,0,0,1,205.112,258.747Z" transform="translate(-112.498 -76.817)" fill="#fff"/>
        <path id="Path_79083" data-name="Path 79083" d="M196.022,253.147l-5.937-3.657a.34.34,0,0,1,0-.582l6.228-3.88a.6.6,0,0,1,.65,0l5.947,3.657a.34.34,0,0,1,0,.582l-6.228,3.88a.621.621,0,0,1-.66,0Z" transform="translate(-112.226 -76.65)" fill="#fff"/>
        <path id="Path_79084" data-name="Path 79084" d="M285.812,321.157l-5.947-3.657a.349.349,0,0,1,0-.582l6.228-3.88a.65.65,0,0,1,.65,0L292.7,316.7a.34.34,0,0,1,0,.572l-6.228,3.88A.621.621,0,0,1,285.812,321.157Z" transform="translate(-114.912 -78.685)" fill="#fff"/>
        <path id="Path_79085" data-name="Path 79085" d="M276.742,315.556l-5.947-3.7a.34.34,0,0,1,0-.582l6.228-3.88a.65.65,0,0,1,.65,0l5.956,3.657a.349.349,0,0,1,0,.582l-6.238,3.88a.6.6,0,0,1-.65.039Z" transform="translate(-114.641 -78.516)" fill="#fff"/>
        <path id="Path_79086" data-name="Path 79086" d="M267.652,309.957l-5.937-3.657a.349.349,0,0,1,0-.592l6.228-3.88a.65.65,0,0,1,.65,0l5.947,3.657a.34.34,0,0,1,0,.582l-6.228,3.88A.669.669,0,0,1,267.652,309.957Z" transform="translate(-114.369 -78.349)" fill="#fff"/>
        <path id="Path_79087" data-name="Path 79087" d="M258.572,304.356l-5.947-3.657a.349.349,0,0,1,0-.592l6.228-3.88a.6.6,0,0,1,.65,0l5.956,3.657a.349.349,0,0,1,0,.582l-6.238,3.88a.65.65,0,0,1-.65.01Z" transform="translate(-114.097 -78.182)" fill="#fff"/>
        <path id="Path_79088" data-name="Path 79088" d="M249.492,298.747l-5.947-3.648a.349.349,0,0,1,0-.592l6.228-3.88a.6.6,0,0,1,.65,0l5.956,3.657a.349.349,0,0,1,0,.582l-6.238,3.88A.6.6,0,0,1,249.492,298.747Z" transform="translate(-113.826 -78.014)" fill="#fff"/>
        <path id="Path_79089" data-name="Path 79089" d="M240.4,293.147l-5.947-3.648a.349.349,0,0,1,0-.592l6.228-3.88a.621.621,0,0,1,.66,0l5.947,3.657a.349.349,0,0,1,0,.582l-6.228,3.88a.621.621,0,0,1-.66,0Z" transform="translate(-113.554 -77.847)" fill="#fff"/>
        <path id="Path_79090" data-name="Path 79090" d="M231.322,287.545l-5.947-3.686a.349.349,0,0,1,0-.592l6.228-3.88a.6.6,0,0,1,.65,0l5.956,3.657a.349.349,0,0,1,0,.582l-6.238,3.88A.6.6,0,0,1,231.322,287.545Z" transform="translate(-113.282 -77.678)" fill="#fff"/>
        <path id="Path_79091" data-name="Path 79091" d="M222.232,281.947l-5.937-3.657a.339.339,0,0,1,0-.582l6.228-3.88a.6.6,0,0,1,.65,0l5.947,3.657a.339.339,0,0,1,0,.582l-6.228,3.88a.621.621,0,0,1-.66,0Z" transform="translate(-113.01 -77.511)" fill="#fff"/>
        <path id="Path_79092" data-name="Path 79092" d="M213.152,276.347l-5.947-3.657a.349.349,0,0,1,0-.582l6.228-3.88a.63.63,0,0,1,.65,0l5.956,3.657a.34.34,0,0,1,0,.572l-6.228,3.88A.621.621,0,0,1,213.152,276.347Z" transform="translate(-112.738 -77.344)" fill="#fff"/>
        <path id="Path_79093" data-name="Path 79093" d="M204.072,270.747l-5.947-3.657a.34.34,0,0,1,0-.582l6.228-3.88a.65.65,0,0,1,.65,0l5.956,3.667a.34.34,0,0,1,0,.572l-6.238,3.88A.6.6,0,0,1,204.072,270.747Z" transform="translate(-112.467 -77.177)" fill="#fff"/>
        <path id="Path_79094" data-name="Path 79094" d="M194.981,265.147,189,261.49a.349.349,0,0,1,0-.582l6.238-3.88a.65.65,0,0,1,.65,0l5.947,3.657a.34.34,0,0,1,0,.582l-6.228,3.88A.621.621,0,0,1,194.981,265.147Z" transform="translate(-112.194 -77.009)" fill="#fff"/>
        <path id="Path_79095" data-name="Path 79095" d="M185.9,259.546l-5.908-3.686a.349.349,0,0,1,0-.592l6.228-3.88a.65.65,0,0,1,.65,0l5.956,3.657a.349.349,0,0,1,0,.582l-6.238,3.88A.65.65,0,0,1,185.9,259.546Z" transform="translate(-111.924 -76.84)" fill="#fff"/>
        <path id="Path_79096" data-name="Path 79096" d="M275.7,327.545l-5.947-3.686a.349.349,0,0,1,0-.592l6.228-3.88a.6.6,0,0,1,.65,0l5.956,3.657a.349.349,0,0,1,0,.582l-6.238,3.88A.6.6,0,0,1,275.7,327.545Z" transform="translate(-114.61 -78.874)" fill="#fff"/>
        <path id="Path_79097" data-name="Path 79097" d="M266.612,321.947l-5.947-3.648a.349.349,0,0,1,0-.592l6.228-3.88a.621.621,0,0,1,.66,0l5.947,3.657a.34.34,0,0,1,0,.582l-6.228,3.88a.621.621,0,0,1-.66,0Z" transform="translate(-114.338 -78.708)" fill="#fff"/>
        <path id="Path_79098" data-name="Path 79098" d="M257.531,316.347l-5.947-3.648a.349.349,0,0,1,0-.592l6.228-3.88a.6.6,0,0,1,.65,0l5.956,3.657a.349.349,0,0,1,0,.582l-6.238,3.88A.6.6,0,0,1,257.531,316.347Z" transform="translate(-114.066 -78.541)" fill="#fff"/>
        <path id="Path_79099" data-name="Path 79099" d="M248.452,310.747l-5.947-3.657a.34.34,0,0,1,0-.582l6.228-3.88a.6.6,0,0,1,.65,0l5.947,3.657a.34.34,0,0,1,0,.582l-6.228,3.88A.6.6,0,0,1,248.452,310.747Z" transform="translate(-113.794 -78.373)" fill="#fff"/>
        <path id="Path_79100" data-name="Path 79100" d="M239.362,305.147l-5.947-3.657a.349.349,0,0,1,0-.582l6.228-3.88a.63.63,0,0,1,.65,0l5.956,3.657a.34.34,0,0,1,0,.572l-6.228,3.88a.621.621,0,0,1-.66.01Z" transform="translate(-113.523 -78.206)" fill="#fff"/>
        <path id="Path_79101" data-name="Path 79101" d="M230.282,299.546l-5.947-3.686a.339.339,0,0,1,0-.582l6.228-3.88a.65.65,0,0,1,.65,0l5.956,3.667a.34.34,0,0,1,0,.572l-6.238,3.88a.6.6,0,0,1-.65.029Z" transform="translate(-113.251 -78.037)" fill="#fff"/>
        <path id="Path_79102" data-name="Path 79102" d="M221.192,293.947l-5.947-3.657a.34.34,0,0,1,0-.582l6.228-3.88a.65.65,0,0,1,.65,0l5.947,3.657a.34.34,0,0,1,0,.582l-6.228,3.88a.621.621,0,0,1-.65,0Z" transform="translate(-112.979 -77.871)" fill="#fff"/>
        <path id="Path_79103" data-name="Path 79103" d="M212.112,288.347l-5.947-3.657a.349.349,0,0,1,0-.592l6.228-3.88a.65.65,0,0,1,.65,0L219,283.884a.349.349,0,0,1,0,.582l-6.238,3.88A.65.65,0,0,1,212.112,288.347Z" transform="translate(-112.707 -77.703)" fill="#fff"/>
        <path id="Path_79104" data-name="Path 79104" d="M203.032,282.746l-5.947-3.657a.349.349,0,0,1,0-.592l6.228-3.88a.6.6,0,0,1,.65,0l5.956,3.657a.349.349,0,0,1,0,.582l-6.238,3.88A.65.65,0,0,1,203.032,282.746Z" transform="translate(-112.436 -77.535)" fill="#fff"/>
        <path id="Path_79105" data-name="Path 79105" d="M193.942,277.137l-5.947-3.647a.349.349,0,0,1,0-.592l6.228-3.88a.6.6,0,0,1,.65,0l5.956,3.657a.349.349,0,0,1,0,.582l-6.228,3.88a.621.621,0,0,1-.66,0Z" transform="translate(-112.164 -77.368)" fill="#fff"/>
        <path id="Path_79106" data-name="Path 79106" d="M184.862,271.536l-5.947-3.677a.349.349,0,0,1,0-.592l6.228-3.88a.6.6,0,0,1,.65,0l5.956,3.657a.349.349,0,0,1,0,.582l-6.238,3.88a.6.6,0,0,1-.65.029Z" transform="translate(-111.892 -77.199)" fill="#fff"/>
        <path id="Path_79107" data-name="Path 79107" d="M175.812,265.937l-5.937-3.648a.349.349,0,0,1,0-.592l6.228-3.88a.6.6,0,0,1,.65,0l5.947,3.657a.34.34,0,0,1,0,.582l-6.228,3.88a.621.621,0,0,1-.66,0Z" transform="translate(-111.621 -77.032)" fill="#fff"/>
        <path id="Path_79108" data-name="Path 79108" d="M265.572,333.947l-5.947-3.657a.349.349,0,0,1,0-.582l6.228-3.88a.63.63,0,0,1,.65,0l5.956,3.657a.339.339,0,0,1,0,.572l-6.228,3.88a.621.621,0,0,1-.66.01Z" transform="translate(-114.307 -79.067)" fill="#fff"/>
        <path id="Path_79109" data-name="Path 79109" d="M256.491,328.347l-5.947-3.657a.339.339,0,0,1,0-.582l6.228-3.88a.65.65,0,0,1,.65,0l5.956,3.667a.339.339,0,0,1,0,.572l-6.238,3.88A.6.6,0,0,1,256.491,328.347Z" transform="translate(-114.035 -78.9)" fill="#fff"/>
        <path id="Path_79110" data-name="Path 79110" d="M247.4,322.747l-5.937-3.657a.339.339,0,0,1,0-.582l6.228-3.88a.65.65,0,0,1,.65,0l5.947,3.667a.33.33,0,0,1,0,.572l-6.228,3.88a.621.621,0,0,1-.66,0Z" transform="translate(-113.763 -78.732)" fill="#fff"/>
        <path id="Path_79111" data-name="Path 79111" d="M201.982,294.747l-5.937-3.648a.349.349,0,0,1,0-.592l6.228-3.88a.6.6,0,0,1,.65,0l5.947,3.657a.34.34,0,0,1,0,.582l-6.228,3.88a.621.621,0,0,1-.66,0Z" transform="translate(-112.404 -77.894)" fill="#fff"/>
        <path id="Path_79112" data-name="Path 79112" d="M192.9,289.137,187,285.479a.349.349,0,0,1,0-.582l6.228-3.88a.6.6,0,0,1,.65,0l5.956,3.657a.349.349,0,0,1,0,.582l-6.228,3.88A.621.621,0,0,1,192.9,289.137Z" transform="translate(-112.134 -77.726)" fill="#fff"/>
        <path id="Path_79113" data-name="Path 79113" d="M183.812,283.536l-5.937-3.677a.34.34,0,0,1,0-.582l6.228-3.88a.63.63,0,0,1,.65,0l5.956,3.657a.34.34,0,0,1,0,.572l-6.238,3.88A.6.6,0,0,1,183.812,283.536Z" transform="translate(-111.861 -77.558)" fill="#fff"/>
        <path id="Path_79114" data-name="Path 79114" d="M178.552,275.626l-5.947-3.7a.349.349,0,0,1,0-.592l2.522-1.581a.669.669,0,0,1,.66,0l5.947,3.667a.33.33,0,0,1,0,.572l-2.532,1.591a.65.65,0,0,1-.65.039Z" transform="translate(-111.703 -77.39)" fill="#fff"/>
        <path id="Path_79115" data-name="Path 79115" d="M174.732,278.008l-5.947-3.648a.349.349,0,0,1,0-.592l2.532-1.581a.6.6,0,0,1,.65,0l5.947,3.7a.339.339,0,0,1,0,.582l-2.532,1.581A.6.6,0,0,1,174.732,278.008Z" transform="translate(-111.589 -77.462)" fill="#fff"/>
        <path id="Path_79116" data-name="Path 79116" d="M165.651,272.337,159.7,268.68a.339.339,0,0,1,0-.582l6.228-3.88a.65.65,0,0,1,.65,0l5.956,3.667a.339.339,0,0,1,0,.572l-6.238,3.88A.6.6,0,0,1,165.651,272.337Z" transform="translate(-111.317 -77.224)" fill="#fff"/>
        <path id="Path_79117" data-name="Path 79117" d="M205.125,296.1l6.228-3.88a.6.6,0,0,1,.65,0l5.956,3.657h0l21.817,13.455h0l4.608,2.833a.349.349,0,0,1,0,.582l-6.238,3.88a.65.65,0,0,1-.65,0l-5.947-3.657h0l-23.1-14.241h0l-3.337-2.047a.349.349,0,0,1,.01-.582Z" transform="translate(-112.676 -78.062)" fill="#fff"/>
        <path id="Path_79118" data-name="Path 79118" d="M331.995,271.006,233.9,210.6V127.89L331.995,188.3Z" transform="translate(-113.542 -73.148)" fill="#d0dcfe"/>
        <path id="Path_79119" data-name="Path 79119" d="M233.817,127.89l-2.687.708,3.192,3.774Z" transform="translate(-113.459 -73.148)" fill="#c9ccd3"/>
        <path id="Path_79120" data-name="Path 79120" d="M334.857,275.319l-2.677.7-2.61-3.958h2.842Z" transform="translate(-116.404 -77.461)" fill="#c9ccd3"/>
        <path id="Path_79121" data-name="Path 79121" d="M329.178,187.016V271.7l-98.1-60.407-1.824-74.716,4.511-8.692" transform="translate(-113.403 -73.148)" fill="#f7f7f7"/>
        <path id="Path_79122" data-name="Path 79122" d="M277.276,241.635l-.97.378a21.216,21.216,0,0,1-16.666-2.406l-38.25-23.486,10.36-2.542" transform="translate(-113.168 -75.712)" fill="#f7f7f7"/>
        <path id="Path_79123" data-name="Path 79123" d="M221.37,130.91v82.738l12.417-1.853,2.862-6.3-.349-38.784-3.871-29.976Z" transform="translate(-113.167 -73.239)" fill="#f7f7f7"/>
        <path id="Path_79124" data-name="Path 79124" d="M279.09,155.9l-2.794.757a21.342,21.342,0,0,1-16.666-2.406L221.37,130.76l9.138-4.85" transform="translate(-113.167 -73.089)" fill="#d5ebff"/>
        <path id="Path_79125" data-name="Path 79125" d="M333.334,189.423l-7.955,5.413-40.317-24.97a12.165,12.165,0,0,1-5.355-13.426h0l.611.146Z" transform="translate(-114.9 -74.002)" fill="#d5ebff"/>
        <path id="Path_79126" data-name="Path 79126" d="M279.74,165.05" transform="translate(-114.913 -74.26)" fill="#b6d8f2"/>
        <path id="Path_79127" data-name="Path 79127" d="M303.8,191.1a.775.775,0,0,1-.388-.107L284.85,179.5a.737.737,0,0,1,.776-1.251l18.558,11.5a.737.737,0,0,1-.388,1.358Z" transform="translate(-115.057 -74.652)" fill="#b6d8f2"/>
        <path id="Path_79128" data-name="Path 79128" d="M320.924,201.707a.689.689,0,0,1-.388-.107l-8.886-5.5a.737.737,0,0,1-.233-.97.727.727,0,0,1,.97-.243l8.886,5.5a.737.737,0,0,1-.388,1.358Z" transform="translate(-115.858 -75.15)" fill="#b6d8f2"/>
        <path id="Path_79129" data-name="Path 79129" d="M320.121,207.979a.7.7,0,0,1-.388-.116L284.81,186.269a.737.737,0,0,1,.776-1.251l34.923,21.594a.747.747,0,0,1,.233,1.019.728.728,0,0,1-.621.349Z" transform="translate(-115.056 -74.855)" fill="#b6d8f2"/>
        <path id="Path_79130" data-name="Path 79130" d="M291.778,197.171a.8.8,0,0,1-.388-.107l-6.509-4.036a.737.737,0,0,1,.776-1.251l6.509,4.036a.718.718,0,0,1,.233.97A.728.728,0,0,1,291.778,197.171Z" transform="translate(-115.058 -75.057)" fill="#b6d8f2"/>
        <path id="Path_79131" data-name="Path 79131" d="M308.029,207.25a.689.689,0,0,1-.388-.107L296.31,200.13a.737.737,0,0,1-.233-.97.728.728,0,0,1,.97-.243l11.331,7.014a.737.737,0,0,1,.233.97.708.708,0,0,1-.582.349Z" transform="translate(-115.399 -75.27)" fill="#b6d8f2"/>
        <path id="Path_79132" data-name="Path 79132" d="M320.945,215.25a.689.689,0,0,1-.388-.107l-8.217-5.083a.747.747,0,0,1-.233-.97.737.737,0,0,1,.97-.233l8.217,5.083a.737.737,0,0,1,.233.97.708.708,0,0,1-.582.34Z" transform="translate(-115.879 -75.568)" fill="#b6d8f2"/>
        <path id="Path_79133" data-name="Path 79133" d="M300.73,209.5a.776.776,0,0,1-.388-.107L284.82,199.8a.737.737,0,0,1,.776-1.251l15.521,9.594a.737.737,0,0,1-.388,1.358Z" transform="translate(-115.056 -75.259)" fill="#b6d8f2"/>
        <path id="Path_79134" data-name="Path 79134" d="M320.8,221.928a.7.7,0,0,1-.388-.116l-12.834-7.945a.737.737,0,1,1,.766-1.251l12.844,7.955a.737.737,0,0,1-.388,1.358Z" transform="translate(-115.734 -75.679)" fill="#b6d8f2"/>
        <path id="Path_79135" data-name="Path 79135" d="M294.027,212.117a.727.727,0,0,1-.388-.116l-8.789-5.442a.737.737,0,0,1,.776-1.251l8.789,5.452a.728.728,0,0,1,.243.97A.757.757,0,0,1,294.027,212.117Z" transform="translate(-115.057 -75.462)" fill="#b6d8f2"/>
        <path id="Path_79136" data-name="Path 79136" d="M311.558,222.977a.747.747,0,0,1-.388-.116l-10.36-6.412a.747.747,0,0,1-.233-1.019.737.737,0,0,1,.97-.233l10.361,6.412a.737.737,0,0,1-.388,1.368Z" transform="translate(-115.533 -75.757)" fill="#b6d8f2"/>
        <path id="Path_79137" data-name="Path 79137" d="M320.995,228.829a.689.689,0,0,1-.388-.107l-6.538-4.045a.737.737,0,1,1,.776-1.251l6.538,4.045a.747.747,0,0,1,.233.97.718.718,0,0,1-.621.388Z" transform="translate(-115.929 -76.002)" fill="#b6d8f2"/>
        <path id="Path_79138" data-name="Path 79138" d="M320.121,235.039a.776.776,0,0,1-.388-.107l-34.923-21.6a.737.737,0,0,1,.776-1.251l34.923,21.6a.737.737,0,0,1-.388,1.358Z" transform="translate(-115.056 -75.664)" fill="#b6d8f2"/>
        <path id="Path_79139" data-name="Path 79139" d="M307.3,233.855a.767.767,0,0,1-.378-.107L284.87,220.09a.718.718,0,0,1-.233-.97.728.728,0,0,1,.97-.242l22.04,13.659a.737.737,0,0,1-.388,1.358Z" transform="translate(-115.057 -75.868)" fill="#b6d8f2"/>
        <path id="Path_79140" data-name="Path 79140" d="M320.919,242.3a.7.7,0,0,1-.388-.116L311.5,236.6a.747.747,0,0,1-.233-.97.728.728,0,0,1,.97-.233l9.031,5.588a.747.747,0,0,1,.233.97A.727.727,0,0,1,320.919,242.3Z" transform="translate(-115.854 -76.362)" fill="#b6d8f2"/>
        <path id="Path_79141" data-name="Path 79141" d="M294.144,232.485a.834.834,0,0,1-.388-.107l-8.905-5.52a.737.737,0,0,1,.776-1.251l8.905,5.52a.737.737,0,0,1-.388,1.358Z" transform="translate(-115.057 -76.069)" fill="#b6d8f2"/>
        <path id="Path_79142" data-name="Path 79142" d="M320.524,248.819a.776.776,0,0,1-.388-.107L298.3,235.19a.737.737,0,0,1-.233-.97.728.728,0,0,1,.97-.243L320.874,247.5a.737.737,0,0,1-.388,1.358Z" transform="translate(-115.459 -76.319)" fill="#b6d8f2"/>
        <path id="Path_79143" data-name="Path 79143" d="M303.882,245.279a.737.737,0,0,1-.388-.107l-18.645-11.554a.732.732,0,0,1,.776-1.242l18.645,11.544a.728.728,0,0,1,.242.97A.747.747,0,0,1,303.882,245.279Z" transform="translate(-115.056 -76.271)" fill="#b6d8f2"/>
        <path id="Path_79144" data-name="Path 79144" d="M320.841,255.784a.7.7,0,0,1-.388-.116L308.87,248.5a.737.737,0,0,1,.776-1.251l11.583,7.169a.747.747,0,0,1,.233,1.019A.728.728,0,0,1,320.841,255.784Z" transform="translate(-115.775 -76.716)" fill="#b6d8f2"/>
        <path id="Path_79145" data-name="Path 79145" d="M296.045,247.189a.737.737,0,0,1-.388-.107l-10.807-6.694a.737.737,0,0,1,.776-1.251l10.807,6.655a.728.728,0,0,1-.388,1.358Z" transform="translate(-115.057 -76.474)" fill="#b6d8f2"/>
        <path id="Path_79146" data-name="Path 79146" d="M320.614,262.4a.775.775,0,0,1-.388-.107l-18.878-11.641a.737.737,0,1,1,.776-1.251L321,261.1a.737.737,0,0,1-.388,1.358Z" transform="translate(-115.548 -76.78)" fill="#b6d8f2"/>
        <path id="Path_79147" data-name="Path 79147" d="M333.3,274.381l-7.955,5.423-41.52-25.678a12.145,12.145,0,0,1-5.355-13.436Z" transform="translate(-114.863 -76.523)" fill="#f7f7f7"/>
        <path id="Path_79148" data-name="Path 79148" d="M326.82,195.845v82.447l7.955-5.423V190.16Z" transform="translate(-116.322 -75.011)" fill="#b6d8f2"/>
        <path id="Path_79149" data-name="Path 79149" d="M279.3,159.03l.039,10.118-.029,10.108-.194,20.226-.369,20.226-.243,10.108-.32,10.108-.039-10.108.039-10.118.194-20.226.359-20.226.242-10.108Z" transform="translate(-114.866 -74.08)" fill="#b6d8f2"/>
        <path id="Path_79150" data-name="Path 79150" d="M252.768,162.039a.766.766,0,0,1-.378-.107L227.75,146.8a.737.737,0,0,1-.243-.97.747.747,0,0,1,1.019-.243L253.2,160.671a.737.737,0,0,1-.388,1.368Z" transform="translate(-113.348 -73.674)" fill="#b6d8f2"/>
        <path id="Path_79151" data-name="Path 79151" d="M269.453,175.158a22.1,22.1,0,0,1-11.529-3.243L227.75,153.389a.737.737,0,0,1-.243-.97.728.728,0,0,1,1.019-.243L258.7,170.7a20.536,20.536,0,0,0,13.222,2.91.738.738,0,1,1,.184,1.465A22.2,22.2,0,0,1,269.453,175.158Z" transform="translate(-113.348 -73.871)" fill="#b6d8f2"/>
        <path id="Path_79152" data-name="Path 79152" d="M241,168.62a.7.7,0,0,1-.388-.116l-12.863-7.9a.737.737,0,1,1,.776-1.251l12.854,7.9a.728.728,0,0,1,.243.97.718.718,0,0,1-.621.4Z" transform="translate(-113.346 -74.086)" fill="#b6d8f2"/>
        <path id="Path_79153" data-name="Path 79153" d="M270.158,182.821a22.02,22.02,0,0,1-11.525-3.25l-7.334-4.5a.728.728,0,0,1-.243-.97.718.718,0,0,1,.97-.243l7.344,4.5a20.537,20.537,0,0,0,13.222,2.91.728.728,0,0,1,.825.64.737.737,0,0,1-.64.815,20.358,20.358,0,0,1-2.619.1Z" transform="translate(-114.052 -74.521)" fill="#b6d8f2"/>
        <path id="Path_79154" data-name="Path 79154" d="M249.527,181.079a.776.776,0,0,1-.388-.107l-21.39-13.135a.737.737,0,1,1,.776-1.251l21.342,13.125a.737.737,0,0,1,.242.97.728.728,0,0,1-.582.4Z" transform="translate(-113.346 -74.302)" fill="#b6d8f2"/>
        <path id="Path_79155" data-name="Path 79155" d="M270.384,190.189a22.108,22.108,0,0,1-11.525-3.23.737.737,0,0,1-.243-.97.728.728,0,0,1,1.019-.243,20.6,20.6,0,0,0,13.222,2.91.738.738,0,1,1,.184,1.465A22.205,22.205,0,0,1,270.384,190.189Z" transform="translate(-114.279 -74.876)" fill="#b6d8f2"/>
        <path id="Path_79156" data-name="Path 79156" d="M238.838,181.752a.679.679,0,0,1-.378-.107l-10.671-6.567a.74.74,0,0,1,.776-1.261l10.671,6.577a.737.737,0,0,1-.388,1.358Z" transform="translate(-113.348 -74.519)" fill="#b6d8f2"/>
        <path id="Path_79157" data-name="Path 79157" d="M256.851,192.8a.679.679,0,0,1-.378-.107l-11.806-7.247a.737.737,0,1,1,.766-1.251l11.806,7.247a.737.737,0,0,1-.388,1.358Z" transform="translate(-113.852 -74.828)" fill="#b6d8f2"/>
        <path id="Path_79158" data-name="Path 79158" d="M270.434,197.446a22.08,22.08,0,0,1-9.109-1.94.737.737,0,1,1,.611-1.339,20.556,20.556,0,0,0,10.991,1.688.737.737,0,0,1,.825.64.747.747,0,0,1-.64.825,22.52,22.52,0,0,1-2.677.126Z" transform="translate(-114.348 -75.129)" fill="#b6d8f2"/>
        <path id="Path_79159" data-name="Path 79159" d="M254.736,198.73a.679.679,0,0,1-.378-.107l-26.609-16.336a.737.737,0,1,1,.776-1.251l26.619,16.336a.737.737,0,0,1-.388,1.358Z" transform="translate(-113.346 -74.734)" fill="#b6d8f2"/>
        <path id="Path_79160" data-name="Path 79160" d="M270.473,204.688a21.952,21.952,0,0,1-8.187-1.581.731.731,0,1,1,.543-1.358,20.624,20.624,0,0,0,10.128,1.319.728.728,0,0,1,.825.64.737.737,0,0,1-.64.815A22.384,22.384,0,0,1,270.473,204.688Z" transform="translate(-114.377 -75.356)" fill="#b6d8f2"/>
        <path id="Path_79161" data-name="Path 79161" d="M269.453,211.286a22.1,22.1,0,0,1-11.529-3.243l-30.175-18.526a.74.74,0,0,1,.776-1.261L258.7,206.785a20.537,20.537,0,0,0,13.222,2.91.738.738,0,1,1,.184,1.465A22.2,22.2,0,0,1,269.453,211.286Z" transform="translate(-113.347 -74.951)" fill="#b6d8f2"/>
        <path id="Path_79162" data-name="Path 79162" d="M235.383,201.3a.737.737,0,0,1-.388-.107l-7.247-4.453a.737.737,0,1,1,.776-1.251l7.247,4.453a.737.737,0,0,1,.243.97A.747.747,0,0,1,235.383,201.3Z" transform="translate(-113.346 -75.167)" fill="#b6d8f2"/>
        <path id="Path_79163" data-name="Path 79163" d="M269.971,218.835a22.052,22.052,0,0,1-11.527-3.251l-13.395-8.225a.737.737,0,0,1-.243-.97.747.747,0,0,1,1.019-.243l13.4,8.226a20.6,20.6,0,0,0,13.222,2.91.737.737,0,1,1,.184,1.455A22.223,22.223,0,0,1,269.971,218.835Z" transform="translate(-113.865 -75.486)" fill="#b6d8f2"/>
        <path id="Path_79164" data-name="Path 79164" d="M247.384,215.891a.767.767,0,0,1-.378-.107L227.75,203.959a.737.737,0,0,1-.243-.97.728.728,0,0,1,1.019-.242l19.237,11.806a.737.737,0,0,1-.388,1.368Z" transform="translate(-113.348 -75.384)" fill="#b6d8f2"/>
        <path id="Path_79165" data-name="Path 79165" d="M259.038,223.047a.806.806,0,0,1-.388-.107l-6.791-4.191a.737.737,0,0,1-.243-.97.747.747,0,0,1,.97-.242l6.791,4.191a.747.747,0,0,1,.243.97A.757.757,0,0,1,259.038,223.047Z" transform="translate(-114.069 -75.828)" fill="#b6d8f2"/>
        <path id="Path_79166" data-name="Path 79166" d="M270.493,226.386a21.7,21.7,0,0,1-6.519-.97.732.732,0,1,1,.437-1.4,20.468,20.468,0,0,0,8.595.766.738.738,0,1,1,.184,1.465A22.986,22.986,0,0,1,270.493,226.386Z" transform="translate(-114.426 -76.023)" fill="#b6d8f2"/>
        <path id="Path_79167" data-name="Path 79167" d="M233.979,214.895a.689.689,0,0,1-.378-.116l-5.82-3.589a.737.737,0,0,1-.243-.97.747.747,0,0,1,1.019-.243l5.82,3.589a.737.737,0,0,1-.388,1.368Z" transform="translate(-113.349 -75.601)" fill="#b6d8f2"/>
        <path id="Path_79168" data-name="Path 79168" d="M269.821,233.193a22.021,22.021,0,0,1-11.525-3.25l-18.228-11.185a.738.738,0,1,1,.766-1.261l18.238,11.156a20.537,20.537,0,0,0,13.222,2.91.737.737,0,1,1,.184,1.455A20.374,20.374,0,0,1,269.821,233.193Z" transform="translate(-113.716 -75.826)" fill="#b6d8f2"/>
        <path id="Path_79169" data-name="Path 79169" d="M296.045,253.409a.834.834,0,0,1-.388-.107l-10.807-6.694a.737.737,0,0,1,.776-1.251l10.807,6.694a.728.728,0,0,1,.243.97.747.747,0,0,1-.631.388Z" transform="translate(-115.057 -76.66)" fill="#b6d8f2"/>
        <path id="Path_79170" data-name="Path 79170" d="M320.425,268.478a.7.7,0,0,1-.388-.116l-25.047-15.5a.737.737,0,0,1-.233-.97.728.728,0,0,1,.97-.243l25.086,15.521a.737.737,0,0,1-.388,1.358Z" transform="translate(-115.36 -76.848)" fill="#b6d8f2"/>
        <path id="Path_79171" data-name="Path 79171" d="M191.649,141.233c0,.485-.883.892-1.94.9s-1.989-.378-1.989-.873.873-.892,1.94-.9S191.639,140.738,191.649,141.233Z" transform="translate(-112.16 -73.521)" fill="#af172b"/>
        <path id="Path_79302" data-name="Path 79302" d="M0,0H3.958V8.139H0Z" transform="translate(75.458 59.597) rotate(-0.51)" fill="#c5273c"/>
        <path id="Path_79172" data-name="Path 79172" d="M191.57,132.843c0,.485-.873.892-1.94.9s-1.94-.378-1.94-.873.873-.892,1.94-.9S191.57,132.348,191.57,132.843Z" transform="translate(-112.159 -73.27)" fill="#af172b"/>
        <path id="Path_79173" data-name="Path 79173" d="M200.16,115.51l4.977,8.837c1.116,1.94,12.019,6.616,25.746-3.88,6.238-4.676,8.643-12.611,7.266-15l-5.82-10.39Z" transform="translate(-112.532 -72.167)" fill="#fbc006"/>
        <path id="Path_79174" data-name="Path 79174" d="M188.24,117.368l37.077,1.29,17.5-31.518-37.183-1.3Z" transform="translate(-112.176 -71.89)" fill="#f7981c"/>
        <path id="Path_79175" data-name="Path 79175" d="M243.474,85.5l.922,1.63-2.047,1.154L241,87.721Z" transform="translate(-113.754 -71.88)" fill="#f7981c"/>
        <path id="Path_79176" data-name="Path 79176" d="M187.3,116.619l.912,1.639,2.8-2.658Z" transform="translate(-112.148 -72.781)" fill="#f7981c"/>
        <path id="Path_79177" data-name="Path 79177" d="M187.3,115.678l37.067,1.3,17.5-31.518-37.183-1.3Z" transform="translate(-112.148 -71.84)" fill="#fbc006"/>
        <path id="Path_79178" data-name="Path 79178" d="M189.689,132.224a.369.369,0,0,1-.369-.369V117.45a.388.388,0,0,1,.155-.3l24.592-17.461a.369.369,0,1,1,.427.6l-24.436,17.384v14.221a.359.359,0,0,1-.369.33Z" transform="translate(-112.208 -72.302)" fill="#c5273c"/>
        <path id="Path_79179" data-name="Path 79179" d="M217.049,99.978a2.134,2.134,0,1,1-.481-1.575,2.124,2.124,0,0,1,.481,1.575Z" transform="translate(-112.911 -72.243)" fill="#c5273c"/>
        <path id="Path_79180" data-name="Path 79180" d="M150.49,261.187l.6-.97a2.629,2.629,0,0,1,1.329,0,5.393,5.393,0,0,1,1.94,1.775l-1.523,3.434" transform="translate(-111.046 -77.104)" fill="#eee"/>
        <path id="Path_79181" data-name="Path 79181" d="M125.23,274.858s7.382.242,8.964-.97,15.677-13.164,15.677-13.164a1.94,1.94,0,0,1,1.863.126,7.906,7.906,0,0,1,1.746,2.26s-10.952,15.987-12.446,16.947-15.521,2.26-15.521,2.26" transform="translate(-110.291 -77.117)" fill="#f99c08"/>
        <path id="Path_79182" data-name="Path 79182" d="M139.393,277.954c-1.242.8-9,1.251-14.163,1.814l.3,2.619s14-1.29,15.521-2.26S153.5,263.18,153.5,263.18s-.243-.456-.592-.97C151.674,263.694,140.819,277.033,139.393,277.954Z" transform="translate(-110.291 -77.167)" fill="#e58a07"/>
        <g id="Group_4870" data-name="Group 4870" transform="translate(4.563 275.312)" opacity="0.3">
          <path id="Path_79183" data-name="Path 79183" d="M158.708,370.9a38.02,38.02,0,0,0,.708-6.616c.1-3.8-.854-7.867-5.093-8.537-6.645-1.057-13.688-.194-20.284.844-5.462.854-12.611.854-17.025,4.559-6.791,5.7,2.008,12.96,6.791,16.229,9.109,6.257,22.312,14.212,30.984,2.726a22.612,22.612,0,0,0,3.919-9.206Z" transform="translate(-114.534 -355.263)" fill="#1796ce"/>
        </g>
        <path id="Path_79184" data-name="Path 79184" d="M126.24,371.11v.058a.309.309,0,0,0,0,.068.233.233,0,0,1,0,.087A2.522,2.522,0,0,0,128.471,373h.446a10.525,10.525,0,0,0,1.261,0h.407a9.943,9.943,0,0,0,3.987-2.173l.165-.068v-.349s1.213-.805,1.649-1.067c1.358-.8,3.3-1.484,5.141-2.4a5.364,5.364,0,0,0,1.3-.873c.068-.058.126-.136.184-.184l.107-.107.107-.155.2-.291c0-.068.068-.116.087-.155l.068-.136a.852.852,0,0,0,.049-.146h0a2.492,2.492,0,0,0,.107-.7V363l-11.282,4.618-6.16,2.309Z" transform="translate(-110.321 -80.182)" fill="#190b05"/>
        <path id="Path_79185" data-name="Path 79185" d="M132.944,362.648a45.268,45.268,0,0,0,4.967-.611c3.075-.524,5.2-.679,5.6.281s.475,1.94-2.27,3.812-4.85,2.076-7.082,3.88a7.761,7.761,0,0,1-4.744,1.736,3.19,3.19,0,0,1-3.1-1.183c-.834-1.552,0-4.5,0-4.5" transform="translate(-110.312 -80.141)" fill="#7f391b"/>
        <path id="Path_79186" data-name="Path 79186" d="M137.67,373.122v1.533a1.445,1.445,0,0,0,.776,1.319,2.434,2.434,0,0,0,.669.184,22.912,22.912,0,0,0,4.85-.233v-.563s1.048-.116,4.123-.5a18.431,18.431,0,0,0,6.383-1.94,1.377,1.377,0,0,0,.737-1.222V370.58l-12.116,2.134Z" transform="translate(-110.663 -80.409)" fill="#190b05"/>
        <path id="Path_79187" data-name="Path 79187" d="M146.17,367.67a4.928,4.928,0,0,0,2.91,1.271c1.591,0,4.685,0,5.471.514a1.29,1.29,0,0,1,.621.97,1.94,1.94,0,0,1-.417,1.232c-.592.873-4.6,2.183-7.615,2.415a44.2,44.2,0,0,0-4.6.437,7.072,7.072,0,0,1-3.812-.087c-1.562-.776-1.669-3.124-.718-4.666S146.17,367.67,146.17,367.67Z" transform="translate(-110.655 -80.322)" fill="#7f391b"/>
        <path id="Path_79188" data-name="Path 79188" d="M129.371,251.5l-.243.572.378,1.94,6.024,3.027.359-.048.97-.116,1.523-.194v-2.086a2.716,2.716,0,0,1,1.562-2.542h.068a3.132,3.132,0,0,0,1.028-.689l.087-.1c1.164-1.232,2.192-4,1.94-10.05a11.767,11.767,0,0,0-.776-3.822c-.883-1.688-2.745-2.8-6.587-1.746-6.4,1.775-9.2,4.676-9.526,7.188S129.371,251.5,129.371,251.5Z" transform="translate(-110.318 -76.36)" fill="#ffd0a3"/>
        <path id="Path_79189" data-name="Path 79189" d="M138.7,257.157v-2.086a2.716,2.716,0,0,1,1.562-2.542c-.32.136-1.29.6-2.58,1.29-.514.281-.5,1.94-.5,3.531Z" transform="translate(-110.648 -76.877)" fill="#f1b987"/>
        <path id="Path_79190" data-name="Path 79190" d="M149.6,268.25l10.768,5.529a1.116,1.116,0,0,0,1.572-.66l5.432-17.394a1.407,1.407,0,0,0-.679-1.659l-10.671-5.491a1.019,1.019,0,0,0-1.436.65l-5.529,17.7A1.106,1.106,0,0,0,149.6,268.25Z" transform="translate(-111.002 -76.756)" fill="#c5273c"/>
        <path id="Path_79191" data-name="Path 79191" d="M150.392,267.837l9.536,4.928a1.028,1.028,0,0,0,1.445-.6L166.486,256c.213-.8.175-1.135-.621-1.533l-10.05-5.151a.446.446,0,0,0-.64.281l-5.326,17.015A1.028,1.028,0,0,0,150.392,267.837Z" transform="translate(-111.026 -76.78)" fill="#00a6e0"/>
        <path id="Path_79192" data-name="Path 79192" d="M159.891,257.81l3.531,1.824a.175.175,0,0,0,.243-.107l.97-3.221a.184.184,0,0,0-.087-.223l-3.531-1.814a.175.175,0,0,0-.243.107l-.97,3.221a.175.175,0,0,0,.087.213Zm-2.59,8.158,2.736,1.416a.136.136,0,0,0,.184-.087l2.144-6.849a.155.155,0,0,0-.068-.175l-2.736-1.407a.126.126,0,0,0-.184.087l-2.144,6.849a.136.136,0,0,0,.068.126Zm-1.591-6.218,2.086,1.086a.107.107,0,0,0,.145-.068v-.136a.107.107,0,0,0-.058-.126l-2.1-1.086a.107.107,0,0,0-.146.068v.136A.107.107,0,0,0,155.71,259.75Zm1.727,1.775a.175.175,0,0,0,.252-.116l.058-.233a.194.194,0,0,0-.1-.233L153.945,259a.175.175,0,0,0-.252.116l-.058.233a.194.194,0,0,0,.1.233m-.213.689,3.706,1.94a.175.175,0,0,0,.252-.107l.058-.243a.184.184,0,0,0-.087-.223l-3.715-1.94a.184.184,0,0,0-.252.116l-.058.233a.213.213,0,0,0,.1.291Zm-.213.689,3.715,1.94a.184.184,0,0,0,.252-.116l.058-.242a.184.184,0,0,0-.1-.223l-3.706-1.94a.175.175,0,0,0-.252.107l-.058.242a.184.184,0,0,0,.087.3Zm-.2.7,3.706,1.94a.175.175,0,0,0,.252-.116l.058-.233a.2.2,0,0,0-.087-.233l-3.715-1.94a.175.175,0,0,0-.252.116l-.058.233a.194.194,0,0,0,.1.262Zm-.213.689,3.715,1.94a.175.175,0,0,0,.252-.107l.058-.243a.2.2,0,0,0-.1-.223l-3.715-1.94a.184.184,0,0,0-.252.116v.233a.194.194,0,0,0,.039.291Zm2.076-6.791,3.88,2a.194.194,0,0,0,.262-.116l1.067-3.541a.194.194,0,0,0-.1-.233l-3.88-2a.175.175,0,0,0-.262.116l-1.067,3.531a.2.2,0,0,0,.068.32Z" transform="translate(-111.115 -76.851)" fill="#f2fcff"/>
        <path id="Path_79193" data-name="Path 79193" d="M159.12,271.039l2.057,1.707.388.33a6.791,6.791,0,0,1,1.31-2.726,5.4,5.4,0,0,1,1.6-.718,1.232,1.232,0,0,0,.679-.466,5.045,5.045,0,0,0,.689-3.88,2.31,2.31,0,0,0-.272-.873h0c-.252-.437-.572-.427-.572-.427s-1.387.97-1.785,1.29-.757.728-1.086.369c-.175-.184.844-1.475,1.125-2.057s-.262-1.222-.5-.97a14.007,14.007,0,0,0-2.231,3.551C159.974,267.663,159.12,271.039,159.12,271.039Z" transform="translate(-111.305 -77.177)" fill="#ffd0a3"/>
        <path id="Path_79194" data-name="Path 79194" d="M160.76,271.338l.466,1.465.388.33a6.791,6.791,0,0,1,1.31-2.726,5.4,5.4,0,0,1,1.6-.718,1.232,1.232,0,0,0,.679-.466,5.045,5.045,0,0,0,.689-3.88,2.309,2.309,0,0,0-.272-.873h0s0,.359-.582.873a15.058,15.058,0,0,1-1.814,1.213,5.52,5.52,0,0,0-1.4,2.105C161.429,269.611,160.76,271.338,160.76,271.338Z" transform="translate(-111.354 -77.234)" fill="#f1b987"/>
        <path id="Path_79195" data-name="Path 79195" d="M161.911,273.235l.359-1.145a.97.97,0,0,0,0-.669,5.373,5.373,0,0,0-.97-1.455,1.416,1.416,0,0,0-1.717-.281,2.445,2.445,0,0,0-.456.873,3.163,3.163,0,0,0-.087,1.028,12.25,12.25,0,0,0,.854,1.222A18.438,18.438,0,0,0,161.911,273.235Z" transform="translate(-111.302 -77.385)" fill="#eee"/>
        <path id="Path_79196" data-name="Path 79196" d="M123.071,310.807c1.426,7.809,2.454,17.461,2.454,17.461s-2.386,19.4.291,36.242c.116.805.4,2.483,1.416,3.143a3.822,3.822,0,0,0,3.308,0l.155-.078c4-2.183,3.57-5.025,4.152-6.888,0-7.5-.8-25.969.8-30.073l1.436-16.365-.534-11.66H122.159S120.937,305.723,123.071,310.807Z" transform="translate(-110.188 -78.375)" fill="#263238"/>
        <path id="Path_79197" data-name="Path 79197" d="M127.593,311.127c1.348,4.433,3.075,16.006,3.444,18.829,0,0-1.329,22.312-.194,37.62,4-2.183,3.57-5.025,4.152-6.888,0-7.5-.8-25.969.8-30.073l1.436-16.365-.534-11.66h-9.846a21.8,21.8,0,0,0,.747,8.537Z" transform="translate(-110.335 -78.375)" fill="#1d1d1d"/>
        <path id="Path_79198" data-name="Path 79198" d="M128.56,306.561a22.954,22.954,0,0,0,3.095,7.479c.272.417.524.844.757,1.261.049.2.747,2.823,1.62,6.335s1.94,7.935,2.668,11.641c-.417,4.715-1.581,21.206.64,35.486a2.59,2.59,0,0,0,1.882,2.124,4.7,4.7,0,0,0,1.572.175,3.967,3.967,0,0,0,1.319-.32c2.348-.97,4.045-4.734,4.045-4.734s.058-23.719,1.29-29.946a28.232,28.232,0,0,0,.427-3.6c.233-3.812.64-10.768.776-13.668a121.328,121.328,0,0,0,.087-12.524L137,306.415Z" transform="translate(-110.39 -78.485)" fill="#263238"/>
        <path id="Path_79199" data-name="Path 79199" d="M137.26,306.455c.058.708.1,1.164.1,1.164a29.809,29.809,0,0,0,1.61,7.392c1.494,4.433,2.978,14.939,3.143,18.878.155,3.628-1.775,20.905-1.057,37.212a3.968,3.968,0,0,0,1.319-.32c2.348-.97,4.045-4.734,4.045-4.734s.058-23.719,1.29-29.946a28.225,28.225,0,0,0,.427-3.6c.233-3.812.64-10.768.776-13.668A121.331,121.331,0,0,0,149,306.31Z" transform="translate(-110.651 -78.486)" fill="#1d1d1d"/>
        <path id="Path_79200" data-name="Path 79200" d="M120.643,271.85c1.94,5.743,2.959,15.182,1.814,19.12a71.124,71.124,0,0,0-1.814,9.526c1.077,2.91,11.088,9.352,16.666,9.846a8.515,8.515,0,0,0,2.047-.078c4.918-.728,9.526-5.093,9.526-5.093S147.825,289,147.165,278.66A59.651,59.651,0,0,0,145.06,265.4a16.163,16.163,0,0,0-.524-1.562,23.282,23.282,0,0,0-4.608-3.57h-.049c-1.5-.97-3.221-2.076-4.938-3.085h0c-2.3-1.358-4.618-2.629-6.47-3.56l-.621-.291a14.551,14.551,0,0,0-2.842-1.164c-2.629-.495-6.16.892-7.217,5.665S118.761,266.1,120.643,271.85Z" transform="translate(-110.059 -76.863)" fill="#fbc006"/>
        <path id="Path_79201" data-name="Path 79201" d="M140.5,291.285c.34,4.414-.33,15.424-.592,19.4,4.918-.728,9.526-5.093,9.526-5.093s-1.057-16.171-1.717-26.512a59.651,59.651,0,0,0-2.105-13.261c-.524-.611-.873-.97-.873-.97h-6.48s-3.366.689-2.144,8.362S140.1,285.862,140.5,291.285Z" transform="translate(-110.608 -77.246)" fill="#f99c08"/>
        <path id="Path_79202" data-name="Path 79202" d="M171.19,240.76" transform="translate(-111.666 -76.525)" fill="#cbcbcb"/>
        <path id="Path_79203" data-name="Path 79203" d="M128.107,255.774c.97,1.348,4.521,3.3,6.15,3.638a14.358,14.358,0,0,0,3.706.165,4.675,4.675,0,0,1,2.221.708h.049l-.97-1.474-1.125-.718s-1.639-.6-2.008-.766a4.229,4.229,0,0,0-.912-.155h0c-.97-.116-2.377-.213-2.59-.242a32.606,32.606,0,0,1-2.959-1.853,15.14,15.14,0,0,1-.922-1.465l-.621-.291A1.94,1.94,0,0,0,128.107,255.774Z" transform="translate(-110.364 -76.901)" fill="#fbc006"/>
        <path id="Path_79204" data-name="Path 79204" d="M124.395,242.847c.553,3.289,3.337,8.459,4.744,8.934a8.431,8.431,0,0,0,2.328.437,2.212,2.212,0,0,0,2.241-1.843,10.672,10.672,0,0,1,.97-2.968c.97-1.824,2.27-2.784,2.91-2.435s.582,1.5.582,1.5h.427a5.122,5.122,0,0,1,.1-.873,13.149,13.149,0,0,0,.126-1.61,5.6,5.6,0,0,1,1.135-3.4,13.369,13.369,0,0,0,1.581-2.91,5.432,5.432,0,0,0,.388-2.61h0a5.365,5.365,0,0,0-2.27-4.278c-3.192-2.338-9.856,2-12.32,4.065a8.517,8.517,0,0,0-2.755,3.88h0a8.479,8.479,0,0,0-.184,4.113Z" transform="translate(-110.261 -76.207)" fill="#713e23"/>
        <path id="Path_79205" data-name="Path 79205" d="M128.586,253.172l.6-.572a14.183,14.183,0,0,0,9.235,4.559,7.761,7.761,0,0,1,1.853,3.133l-.844-.543a3.716,3.716,0,0,0-1.445-.563c-.33-.048-1.067-.087-1.067-.087-3.289-.048-6.558-2.348-8.275-3.764a1.436,1.436,0,0,1-.058-2.163Z" transform="translate(-110.377 -76.879)" fill="#fff"/>
        <path id="Path_79206" data-name="Path 79206" d="M161.85,271.92" transform="translate(-111.386 -77.457)" fill="none" stroke="#381e1e" stroke-miterlimit="10" stroke-width="0.76"/>
        <path id="Path_79207" data-name="Path 79207" d="M168.24,256.57" transform="translate(-111.577 -76.998)" fill="none" stroke="#381e1e" stroke-miterlimit="10" stroke-width="0.76"/>
        <path id="Path_79208" data-name="Path 79208" d="M143.934,365.72a1.26,1.26,0,0,1-.2.3A2.356,2.356,0,0,0,143.934,365.72Z" transform="translate(-110.844 -80.264)" fill="#474747"/>
        <path id="Path_79209" data-name="Path 79209" d="M143.617,366.185l.107-.155a1.686,1.686,0,0,1-.213.262Z" transform="translate(-110.838 -80.273)" fill="#474747"/>
        <path id="Path_79210" data-name="Path 79210" d="M137.593,270.1c.621,3.618,7.538,14.173,7.819,14.551a51.1,51.1,0,0,0,3.454,4.938h0a6.373,6.373,0,0,0,2.154,2.018l.272.068a3.715,3.715,0,0,0,4.365-2.425,76,76,0,0,0,3.667-7.819,74.2,74.2,0,0,0,2.057-8.013,2.464,2.464,0,0,0-.243-1.775.976.976,0,0,1-.087-.126c-.378-.64-.912-1.358-1.387-1.436-.863-.136-1.028.1-1.028.1l-2.9,4.462a37.831,37.831,0,0,0-2.513,5.316c-.116.34-.194.534-.194.534-2.289-5.306-5.268-11.835-6.48-14.551a4.928,4.928,0,0,0-8.246-1.232l-.1.116a2.105,2.105,0,0,0-.33.66h0C137.729,265.668,137.011,266.706,137.593,270.1Z" transform="translate(-110.654 -77.19)" fill="#fbc006"/>
        <path id="Path_79211" data-name="Path 79211" d="M124.395,243c.553,3.289,3.337,8.459,4.744,8.934a8.43,8.43,0,0,0,2.328.437,2.212,2.212,0,0,0,2.241-1.843,10.671,10.671,0,0,1,.97-2.968c.97-1.824,2.27-2.784,2.91-2.435s.582,1.5.582,1.5h.427a5.122,5.122,0,0,1,.1-.873,13.149,13.149,0,0,0,.126-1.61,5.6,5.6,0,0,1,1.135-3.4,13.369,13.369,0,0,0,1.581-2.91,5.433,5.433,0,0,0,.388-2.61,14.551,14.551,0,0,1-10.38,8.546c-7.761,1.62-7.014-4.521-6.965-4.85a8.478,8.478,0,0,0-.184,4.084Z" transform="translate(-110.261 -76.359)" fill="#442312"/>
        <path id="Path_79212" data-name="Path 79212" d="M153.7,280.51c-.116.34-.194.534-.194.534a7.178,7.178,0,0,1,.621,3.2,4.016,4.016,0,0,0-.427-3.735Z" transform="translate(-111.137 -77.714)" fill="#f99c08"/>
        <path id="Path_79213" data-name="Path 79213" d="M137.846,265.59h0s-.233,3.027,2.629,8.071,8.973,17.122,11.99,16.782c1.591-.175,5.093-7.635,6.4-11.117a56.877,56.877,0,0,0,2.105-7.761.974.974,0,0,0,.087.126,2.464,2.464,0,0,1,.243,1.775,74.207,74.207,0,0,1-1.979,8.042,76.007,76.007,0,0,1-3.609,7.887,3.725,3.725,0,0,1-4.365,2.415h0l-.272-.068a6.374,6.374,0,0,1-2.154-2.018h0a51.092,51.092,0,0,1-3.453-4.938c-.281-.417-7.2-10.972-7.819-14.551C137.012,266.783,137.729,265.745,137.846,265.59Z" transform="translate(-110.654 -77.268)" fill="#f99c08"/>
        <ellipse id="Ellipse_1763" data-name="Ellipse 1763" cx="14.144" cy="8.023" rx="14.144" ry="8.023" transform="translate(30.16 143.97)" fill="#1796ce" opacity="0.3"/>
        <ellipse id="Ellipse_1764" data-name="Ellipse 1764" cx="14.144" cy="8.023" rx="14.144" ry="8.023" transform="translate(30.16 141.108)" fill="#347ee7"/>
        <path id="Path_79214" data-name="Path 79214" d="M174.4,181.97,169.042,223.9l-28.288.64L135.4,181.97Z" transform="translate(-110.595 -74.766)" fill="#347ee7"/>
        <ellipse id="Ellipse_1765" data-name="Ellipse 1765" cx="19.499" cy="11.069" rx="19.499" ry="11.069" transform="translate(24.805 96.135)" fill="#d0dcfe"/>
        <ellipse id="Ellipse_1766" data-name="Ellipse 1766" cx="16.967" cy="8.537" rx="16.967" ry="8.537" transform="translate(27.337 98.667)" fill="#272c91"/>
        <ellipse id="Ellipse_1767" data-name="Ellipse 1767" cx="16.967" cy="8.537" rx="16.967" ry="8.537" transform="translate(27.337 98.667)" fill="#00a6e0"/>
        <g id="Group_4871" data-name="Group 4871" transform="translate(27.097 46.134)" clip-path="url(#clip-path-2)">
          <rect id="Rectangle_1884" data-name="Rectangle 1884" width="1.29" height="7.479" rx="0.44" transform="matrix(0.982, 0.19, -0.19, 0.982, 25, 49.739)" fill="#fd9220"/>
          <path id="Path_79215" data-name="Path 79215" d="M160.989,210.93c-.107.582-1.145.669-2.3.194s-2.018-1.348-1.94-1.94,1.145-.679,2.3-.194S161.106,210.329,160.989,210.93Z" transform="translate(-138.331 -121.699)" fill="#9a98ed"/>
          <path id="Path_79216" data-name="Path 79216" d="M165.53,161.68l-8.74,46.1,4.2,1.736,8.74-46.1Z" transform="translate(-138.332 -120.293)" fill="#fbc006"/>
          <path id="Path_79217" data-name="Path 79217" d="M170,163.4c-.107.582-1.135.669-2.3.194s-2.018-1.348-1.94-1.94,1.145-.679,2.3-.194S170.115,162.809,170,163.4Z" transform="translate(-138.6 -120.277)" fill="#205ce1"/>
          <path id="Path_79218" data-name="Path 79218" d="M158.808,151.259v2.066l-.058,2.018v.6l-.058,2.018v3.143l-.049,1.94v8.362l-.058,2V174l-.058,2v3.221l-.048,2.018v3.182l-.049,2.027v3.25l-.058,2.027v.582l-.213,8.255c0,1.94-1.4,3.2-2.716,2.639l-4.947-1.863a2.978,2.978,0,0,1-1.455-2.852l1.484-48.388c.049-1.717,1.193-2.988,2.435-2.707l4.1.97A2.765,2.765,0,0,1,158.808,151.259Z" transform="translate(-138.1 -119.864)" fill="#14b439"/>
          <path id="Path_79219" data-name="Path 79219" d="M159.017,152.876v.6h0l-1.863-.485a.34.34,0,0,1-.175-.349c0-.155.146-.272.262-.223Z" transform="translate(-138.338 -120.016)" fill="#fff"/>
          <path id="Path_79220" data-name="Path 79220" d="M158.937,155.575v.6h0l-1.863-.495c-.116,0-.194-.175-.175-.34s.146-.272.252-.233Z" transform="translate(-138.335 -120.096)" fill="#fff"/>
          <path id="Path_79221" data-name="Path 79221" d="M158.877,158.275v.6h0l-1.863-.495c-.116,0-.194-.184-.175-.34s.136-.272.252-.233Z" transform="translate(-138.334 -120.177)" fill="#fff"/>
          <path id="Path_79222" data-name="Path 79222" d="M158.817,160.915v.6h0l-1.863-.495a.281.281,0,0,1-.175-.34c0-.165.126-.272.252-.233Z" transform="translate(-138.332 -120.256)" fill="#fff"/>
          <path id="Path_79223" data-name="Path 79223" d="M158.747,163.575v.6h0l-1.863-.495c-.116,0-.194-.175-.175-.34s.136-.272.252-.233Z" transform="translate(-138.33 -120.336)" fill="#fff"/>
          <path id="Path_79224" data-name="Path 79224" d="M158.687,166.275v.592h0l-1.863-.495a.32.32,0,0,1-.175-.349c0-.155.136-.272.252-.223Z" transform="translate(-138.328 -120.416)" fill="#fff"/>
          <path id="Path_79225" data-name="Path 79225" d="M158.617,168.985v.6h0l-1.863-.495a.3.3,0,0,1-.165-.34.23.23,0,0,1,.252-.243Z" transform="translate(-138.326 -120.497)" fill="#fff"/>
          <path id="Path_79226" data-name="Path 79226" d="M158.547,171.625v.592h0l-1.863-.495a.291.291,0,0,1-.165-.34c0-.165.136-.281.243-.233Z" transform="translate(-138.324 -120.576)" fill="#fff"/>
          <path id="Path_79227" data-name="Path 79227" d="M158.477,174.3v.592h0l-1.863-.495c-.116,0-.194-.175-.175-.34s.136-.272.252-.233Z" transform="translate(-138.322 -120.656)" fill="#fff"/>
          <path id="Path_79228" data-name="Path 79228" d="M158.417,176.985v.592h0l-1.863-.495a.32.32,0,0,1-.175-.339c0-.165.136-.281.252-.233Z" transform="translate(-138.32 -120.737)" fill="#fff"/>
          <path id="Path_79229" data-name="Path 79229" d="M158.357,179.665v.6h0l-1.863-.495a.3.3,0,0,1-.175-.34.229.229,0,0,1,.262-.243Z" transform="translate(-138.318 -120.817)" fill="#fff"/>
          <path id="Path_79230" data-name="Path 79230" d="M158.287,182.365v.582h0l-1.863-.495c-.126,0-.2-.184-.175-.34s.126-.262.252-.233Z" transform="translate(-138.316 -120.897)" fill="#fff"/>
          <path id="Path_79231" data-name="Path 79231" d="M158.225,185.035v.592h-.058l-1.863-.495c-.126,0-.194-.175-.175-.34s.136-.272.252-.233Z" transform="translate(-138.312 -120.977)" fill="#fff"/>
          <path id="Path_79232" data-name="Path 79232" d="M158.157,187.735v.592h0l-1.863-.495a.32.32,0,0,1-.165-.34c0-.165.126-.272.252-.233Z" transform="translate(-138.312 -121.058)" fill="#fff"/>
          <path id="Path_79233" data-name="Path 79233" d="M158.087,190.4v.563h0l-1.863-.495c-.116,0-.194-.175-.175-.34s.136-.272.252-.233Z" transform="translate(-138.31 -121.137)" fill="#fff"/>
          <path id="Path_79234" data-name="Path 79234" d="M158.015,193.1v.582h-.078l-1.863-.495a.3.3,0,0,1-.175-.34c0-.165.146-.272.252-.233Z" transform="translate(-138.305 -121.219)" fill="#fff"/>
        </g>
        <path id="Path_79243" data-name="Path 79243" d="M384.44,409.538a.311.311,0,0,1,.1-.068h-.049Z" transform="translate(-118.046 -81.572)" fill="#fff"/>
        <path id="Path_79252" data-name="Path 79252" d="M402.33,422.158l.107-.068h-.048Z" transform="translate(-118.581 -81.95)" fill="#fff"/>
        <line id="Line_34" data-name="Line 34" y2="4.336" transform="translate(40.103 43.304)" fill="none" stroke="#fff" stroke-linecap="round" stroke-linejoin="round" stroke-width="1.09"/>
        <line id="Line_35" data-name="Line 35" x1="4.065" y1="2.348" transform="translate(38.066 44.168)" fill="none" stroke="#fff" stroke-linecap="round" stroke-linejoin="round" stroke-width="1.09"/>
        <line id="Line_38" data-name="Line 38" y2="4.336" transform="translate(123.055)" fill="none" stroke="#fff" stroke-linecap="round" stroke-linejoin="round" stroke-width="1.09"/>
        <line id="Line_39" data-name="Line 39" x1="4.065" y1="2.348" transform="translate(121.018 0.863)" fill="none" stroke="#fff" stroke-linecap="round" stroke-linejoin="round" stroke-width="1.09"/>
      </g>
    </g>
  </g>
</svg>
